<?xml version="1.0" encoding="utf-8"?>
<!-- Generator: Adobe Illustrator 17.0.0, SVG Export Plug-In . SVG Version: 6.00 Build 0)  -->
<!DOCTYPE svg PUBLIC "-//W3C//DTD SVG 1.1//EN" "http://www.w3.org/Graphics/SVG/1.1/DTD/svg11.dtd">
<svg version="1.1" id="Layer_1" xmlns="http://www.w3.org/2000/svg" xmlns:xlink="http://www.w3.org/1999/xlink" x="0px" y="0px"
	 width="479.047px" height="733.721px" viewBox="0 0 479.047 733.721" enable-background="new 0 0 479.047 733.721"
	 xml:space="preserve">
<g>
	<g opacity="0.71">
		<path fill="#D24E27" d="M120.052,620.711h0.851c4.232,0,7.695-3.463,7.695-7.695V138.987c0-4.232-3.463-7.695-7.695-7.695h-0.851
			c-4.232,0-7.695,3.463-7.695,7.695l0,474.029C112.356,617.248,115.819,620.711,120.052,620.711z"/>
		<path fill="#D24E27" d="M415.97,590.36h1.666c4.232,0,7.695-3.463,7.695-7.695V193.062c0-4.232-3.463-7.695-7.695-7.695h-1.666
			c-4.232,0-7.695,3.463-7.695,7.695l0,389.602C408.275,586.897,411.738,590.36,415.97,590.36z"/>
		<path fill="#D24E27" d="M230.471,634.739h1.666c4.232,0,7.695-3.463,7.695-7.695V135.034c0-4.232-3.463-7.695-7.695-7.695h-1.666
			c-4.232,0-7.695,3.463-7.695,7.695v492.011C222.775,631.277,226.238,634.739,230.471,634.739z"/>
		<path fill="#D24E27" d="M157.152,589.934h0.851c4.232,0,7.695-3.463,7.695-7.695V189.234c0-4.232-3.463-7.695-7.695-7.695h-0.851
			c-4.232,0-7.695,3.463-7.695,7.695v393.005C149.456,586.472,152.919,589.934,157.152,589.934z"/>
		<path fill="#D24E27" d="M341.77,580.848h1.666c4.232,0,7.695-3.463,7.695-7.695V212.078c0-4.232-3.463-7.695-7.695-7.695h-1.666
			c-4.232,0-7.695,3.463-7.695,7.695v361.075C334.075,577.385,337.538,580.848,341.77,580.848z"/>
		<path fill="#D24E27" d="M267.57,589.094h1.666c4.232,0,7.695-3.463,7.695-7.695V207.849c0-4.232-3.463-7.695-7.695-7.695h-1.666
			c-4.232,0-7.695,3.463-7.695,7.695v373.549C259.875,585.631,263.338,589.094,267.57,589.094z"/>
		<path fill="#D24E27" d="M194.251,607.871h0.851c4.232,0,7.695-3.463,7.695-7.695l0-444.204c0-4.232-3.463-7.695-7.695-7.695
			h-0.851c-4.232,0-7.695,3.463-7.695,7.695v444.204C186.556,604.408,190.019,607.871,194.251,607.871z"/>
		<path fill="#D24E27" d="M304.67,606.825h1.666c4.232,0,7.695-3.463,7.695-7.695V173.17c0-4.232-3.463-7.695-7.695-7.695h-1.666
			c-4.232,0-7.695,3.463-7.695,7.695v425.96C296.975,603.362,300.438,606.825,304.67,606.825z"/>
		<path fill="#D24E27" d="M378.87,629.516h1.666c4.232,0,7.695-3.463,7.695-7.695V170.064c0-4.232-3.463-7.695-7.695-7.695h-1.666
			c-4.232,0-7.695,3.463-7.695,7.695v451.757C371.175,626.053,374.638,629.516,378.87,629.516z"/>
	</g>
	<g>
		<g>
			<g>
				<g>
					<g>
						<rect x="264.911" y="402.211" fill="#F7E4BA" width="45.447" height="79.316"/>
						<rect x="303.024" y="402.211" fill="#F8E0A9" width="6.986" height="79.316"/>
					</g>
					<rect x="262.968" y="397.065" fill="#6B7273" width="49.333" height="5.146"/>
				</g>
				<g>
					<g>
						<rect x="293.067" y="408.372" fill="#057399" width="7.922" height="13.206"/>
						<polygon fill="#055F86" points="293.067,421.578 300.989,421.578 293.067,408.372 						"/>
					</g>
					<g>
						<rect x="277.475" y="408.372" fill="#057399" width="7.923" height="13.206"/>
						<polygon fill="#055F86" points="277.475,421.578 285.398,421.578 277.475,408.372 						"/>
					</g>
					<g>
						<rect x="293.067" y="449.421" fill="#057399" width="7.922" height="13.205"/>
						<polygon fill="#055F86" points="293.067,462.626 300.989,462.626 293.067,449.421 						"/>
					</g>
					<g>
						<rect x="277.475" y="449.421" fill="#057399" width="7.923" height="13.205"/>
						<polygon fill="#055F86" points="277.475,462.626 285.398,462.626 277.475,449.421 						"/>
					</g>
					<g>
						<rect x="293.067" y="428.23" fill="#057399" width="7.922" height="13.205"/>
						<polygon fill="#055F86" points="293.067,441.435 300.989,441.435 293.067,428.23 						"/>
					</g>
					<g>
						<rect x="277.475" y="428.23" fill="#057399" width="7.923" height="13.205"/>
						<polygon fill="#055F86" points="277.475,441.435 285.398,441.435 277.475,428.23 						"/>
					</g>
				</g>
			</g>
			<g>
				<rect x="280.141" y="373.741" fill="#C33C32" width="14.817" height="9.74"/>
				<rect x="279.555" y="373.741" fill="#343F49" width="1.171" height="22.996"/>
			</g>
		</g>
		<g>
			<g>
				<rect x="110.729" y="425.204" fill="#055670" width="58.552" height="26.492"/>
				<rect x="110.729" y="454.597" fill="#055670" width="58.552" height="25.38"/>
				<rect x="109.7" y="450.997" fill="#74253E" width="60.61" height="4.104"/>
			</g>
			<g>
				<rect x="136.218" y="470.04" fill="#916A28" width="7.573" height="9.937"/>
				<polygon fill="#6E5E35" points="136.218,470.04 143.791,479.977 136.218,479.977 				"/>
				<circle fill="#FAA31A" cx="137.447" cy="475.008" r="0.443"/>
			</g>
			<g>
				<g>
					<g>
						<g>
							<rect x="133.24" y="431.423" fill="#9FCCD8" width="12.764" height="4.76"/>
							<polygon fill="#85BCC8" points="133.24,436.183 146.003,436.183 133.24,431.423 							"/>
						</g>
					</g>
					<g>
						<g>
							<rect x="114.877" y="431.423" fill="#9FCCD8" width="12.763" height="4.76"/>
							<polygon fill="#85BCC8" points="114.877,436.183 127.64,436.183 114.877,431.423 							"/>
						</g>
					</g>
					<g>
						<g>
							<rect x="133.24" y="441.971" fill="#9FCCD8" width="12.764" height="4.762"/>
							<polygon fill="#85BCC8" points="133.24,446.733 146.003,446.733 133.24,441.971 							"/>
						</g>
					</g>
					<g>
						<g>
							<rect x="114.877" y="441.971" fill="#9FCCD8" width="12.763" height="4.762"/>
							<polygon fill="#85BCC8" points="114.877,446.733 127.64,446.733 114.877,441.971 							"/>
						</g>
					</g>
				</g>
				<g>
					<g>
						<rect x="121.816" y="460.815" fill="#9FCCD8" width="12.767" height="4.762"/>
						<polygon fill="#85BCC8" points="121.816,465.577 134.583,465.577 121.816,460.815 						"/>
					</g>
				</g>
			</g>
			<g>
				<g>
					<polygon fill="#C33C32" points="169.281,421.661 140.004,403.52 110.729,421.661 					"/>
					<polygon fill="#CE5346" points="169.281,421.661 140.004,403.52 154.024,421.661 					"/>
				</g>
				<rect x="109.7" y="421.098" fill="#74253E" width="60.61" height="4.106"/>
				<g>
					<circle fill="#9FCCD8" cx="140.004" cy="413.137" r="3.664"/>
					<path fill="#85BCC8" d="M137.412,410.545l5.182,5.18c-0.661,0.664-1.578,1.073-2.59,1.073c-2.024,0-3.664-1.638-3.664-3.661
						C136.34,412.124,136.751,411.207,137.412,410.545z"/>
				</g>
			</g>
		</g>
		<g>
			<rect x="307.934" y="375.358" fill="#055670" width="55.281" height="106.004"/>
			<rect x="356.325" y="375.358" fill="#2F7289" width="3.239" height="106.004"/>
			<g>
				<path fill="#828D97" d="M333.486,364.25c0,0.657,0.603,1.19,1.347,1.19l0,0c0.745,0,1.348-0.533,1.348-1.19v-30.222
					c0-0.657-0.603-1.189-1.348-1.189l0,0c-0.744,0-1.347,0.532-1.347,1.189V364.25z"/>
				<circle fill="#618186" cx="334.898" cy="334.856" r="3.185"/>
				<g>
					<path fill="#C33C32" d="M307.934,372.645c3.238-8.141,12.375-19.012,27.64-19.012c15.264,0,24.401,10.871,27.639,19.012
						H307.934z"/>
					<path fill="#D86B5C" d="M334.092,353.668c0.488-0.022,0.981-0.035,1.482-0.035c15.264,0,24.401,10.871,27.639,19.012h-2.964
						C357.118,364.771,348.466,354.345,334.092,353.668z"/>
					<rect x="305.182" y="369.932" fill="#7B242F" width="60.784" height="5.426"/>
				</g>
			</g>
			<g>
				<g>
					<g>
						<rect x="345.661" y="381.024" fill="#9FCCD8" width="12.908" height="5.92"/>
						<polygon fill="#85BCC8" points="345.661,386.944 358.568,386.944 345.661,381.024 						"/>
					</g>
					<g>
						<rect x="329.121" y="381.024" fill="#9FCCD8" width="12.907" height="5.92"/>
						<polygon fill="#85BCC8" points="329.121,386.944 342.028,386.944 329.121,381.024 						"/>
					</g>
					<g>
						<rect x="312.581" y="381.024" fill="#9FCCD8" width="12.907" height="5.92"/>
						<polygon fill="#85BCC8" points="312.581,386.944 325.487,386.944 312.581,381.024 						"/>
					</g>
					<g>
						<rect x="345.661" y="391.624" fill="#9FCCD8" width="12.908" height="5.921"/>
						<polygon fill="#85BCC8" points="345.661,397.544 358.568,397.544 345.661,391.624 						"/>
					</g>
					<g>
						<rect x="329.121" y="391.624" fill="#9FCCD8" width="12.907" height="5.921"/>
						<polygon fill="#85BCC8" points="329.121,397.544 342.028,397.544 329.121,391.624 						"/>
					</g>
					<g>
						<rect x="312.581" y="391.624" fill="#9FCCD8" width="12.907" height="5.921"/>
						<polygon fill="#85BCC8" points="312.581,397.544 325.487,397.544 312.581,391.624 						"/>
					</g>
					<g>
						<rect x="345.661" y="402.224" fill="#9FCCD8" width="12.908" height="5.923"/>
						<polygon fill="#85BCC8" points="345.661,408.147 358.568,408.147 345.661,402.224 						"/>
					</g>
					<g>
						<rect x="329.121" y="402.224" fill="#9FCCD8" width="12.907" height="5.923"/>
						<polygon fill="#85BCC8" points="329.121,408.147 342.028,408.147 329.121,402.224 						"/>
					</g>
					<g>
						<rect x="312.581" y="402.224" fill="#9FCCD8" width="12.907" height="5.923"/>
						<polygon fill="#85BCC8" points="312.581,408.147 325.487,408.147 312.581,402.224 						"/>
					</g>
					<g>
						<rect x="345.661" y="412.824" fill="#9FCCD8" width="12.908" height="5.922"/>
						<polygon fill="#85BCC8" points="345.661,418.745 358.568,418.745 345.661,412.824 						"/>
					</g>
					<g>
						<rect x="329.121" y="412.824" fill="#9FCCD8" width="12.907" height="5.922"/>
						<polygon fill="#85BCC8" points="329.121,418.745 342.028,418.745 329.121,412.824 						"/>
					</g>
					<g>
						<rect x="312.581" y="412.824" fill="#9FCCD8" width="12.907" height="5.922"/>
						<polygon fill="#85BCC8" points="312.581,418.745 325.487,418.745 312.581,412.824 						"/>
					</g>
				</g>
				<g>
					<g>
						<rect x="345.661" y="451.322" fill="#9FCCD8" width="12.908" height="5.921"/>
						<polygon fill="#85BCC8" points="345.661,457.243 358.568,457.243 345.661,451.322 						"/>
					</g>
					<g>
						<rect x="329.121" y="451.322" fill="#9FCCD8" width="12.907" height="5.921"/>
						<polygon fill="#85BCC8" points="329.121,457.243 342.028,457.243 329.121,451.322 						"/>
					</g>
					<g>
						<rect x="312.581" y="451.322" fill="#9FCCD8" width="12.907" height="5.921"/>
						<polygon fill="#85BCC8" points="312.581,457.243 325.487,457.243 312.581,451.322 						"/>
					</g>
					<g>
						<rect x="345.661" y="461.921" fill="#9FCCD8" width="12.908" height="5.922"/>
						<polygon fill="#85BCC8" points="345.661,467.843 358.568,467.843 345.661,461.921 						"/>
					</g>
					<g>
						<rect x="329.121" y="461.921" fill="#9FCCD8" width="12.907" height="5.922"/>
						<polygon fill="#85BCC8" points="329.121,467.843 342.028,467.843 329.121,461.921 						"/>
					</g>
					<g>
						<rect x="312.581" y="461.921" fill="#9FCCD8" width="12.907" height="5.922"/>
						<polygon fill="#85BCC8" points="312.581,467.843 325.487,467.843 312.581,461.921 						"/>
					</g>
				</g>
			</g>
			<g>
				<rect x="305.182" y="422.76" fill="#74253E" width="60.784" height="1.853"/>
				<g>
					<g>
						<polygon fill="#F7F8F8" points="352.115,446.646 334.899,440.461 317.681,446.646 317.681,424.613 352.115,424.613 						"/>
					</g>
				</g>
			</g>
		</g>
		<g>
			<rect x="147.101" y="340.267" fill="#A0AAB3" width="79.354" height="137.95"/>
			<g>
				<g>
					<g>
						<rect x="212.874" y="349.98" fill="#057399" width="7.145" height="11.912"/>
						<polygon fill="#055F86" points="212.874,361.892 220.019,361.892 212.874,349.98 						"/>
					</g>
					<g>
						<rect x="193.096" y="349.98" fill="#057399" width="7.145" height="11.912"/>
						<polygon fill="#055F86" points="193.096,361.892 200.241,361.892 193.096,349.98 						"/>
					</g>
					<g>
						<rect x="173.318" y="349.98" fill="#057399" width="7.145" height="11.912"/>
						<polygon fill="#055F86" points="173.318,361.892 180.464,361.892 173.318,349.98 						"/>
					</g>
					<g>
						<rect x="153.539" y="349.98" fill="#057399" width="7.144" height="11.912"/>
						<polygon fill="#055F86" points="153.539,361.892 160.683,361.892 153.539,349.98 						"/>
					</g>
					<g>
						<rect x="212.874" y="368.111" fill="#057399" width="7.145" height="11.91"/>
						<polygon fill="#055F86" points="212.874,380.021 220.019,380.021 212.874,368.111 						"/>
					</g>
					<g>
						<rect x="193.096" y="368.111" fill="#057399" width="7.145" height="11.91"/>
						<polygon fill="#055F86" points="193.096,380.021 200.241,380.021 193.096,368.111 						"/>
					</g>
					<g>
						<rect x="173.318" y="368.111" fill="#057399" width="7.145" height="11.91"/>
						<polygon fill="#055F86" points="173.318,380.021 180.464,380.021 173.318,368.111 						"/>
					</g>
					<g>
						<rect x="153.539" y="368.111" fill="#057399" width="7.144" height="11.91"/>
						<polygon fill="#055F86" points="153.539,380.021 160.683,380.021 153.539,368.111 						"/>
					</g>
					<g>
						<rect x="212.874" y="386.239" fill="#057399" width="7.145" height="11.912"/>
						<polygon fill="#055F86" points="212.874,398.151 220.019,398.151 212.874,386.239 						"/>
					</g>
					<g>
						<rect x="193.096" y="386.239" fill="#057399" width="7.145" height="11.912"/>
						<polygon fill="#055F86" points="193.096,398.151 200.241,398.151 193.096,386.239 						"/>
					</g>
					<g>
						<rect x="173.318" y="386.239" fill="#057399" width="7.145" height="11.912"/>
						<polygon fill="#055F86" points="173.318,398.151 180.464,398.151 173.318,386.239 						"/>
					</g>
					<g>
						<rect x="153.539" y="386.239" fill="#057399" width="7.144" height="11.912"/>
						<polygon fill="#055F86" points="153.539,398.151 160.683,398.151 153.539,386.239 						"/>
					</g>
				</g>
				<g>
					<g>
						<rect x="212.874" y="404.37" fill="#057399" width="7.145" height="11.91"/>
						<polygon fill="#055F86" points="212.874,416.28 220.019,416.28 212.874,404.37 						"/>
					</g>
					<g>
						<rect x="193.096" y="404.37" fill="#057399" width="7.145" height="11.91"/>
						<polygon fill="#055F86" points="193.096,416.28 200.241,416.28 193.096,404.37 						"/>
					</g>
					<g>
						<rect x="173.318" y="404.37" fill="#057399" width="7.145" height="11.91"/>
						<polygon fill="#055F86" points="173.318,416.28 180.464,416.28 173.318,404.37 						"/>
					</g>
					<g>
						<rect x="153.539" y="404.37" fill="#057399" width="7.144" height="11.91"/>
						<polygon fill="#055F86" points="153.539,416.28 160.683,416.28 153.539,404.37 						"/>
					</g>
					<g>
						<rect x="212.874" y="422.497" fill="#057399" width="7.145" height="11.912"/>
						<polygon fill="#055F86" points="212.874,434.41 220.019,434.41 212.874,422.497 						"/>
					</g>
					<g>
						<rect x="193.096" y="422.497" fill="#057399" width="7.145" height="11.912"/>
						<polygon fill="#055F86" points="193.096,434.41 200.241,434.41 193.096,422.497 						"/>
					</g>
					<g>
						<rect x="173.318" y="422.497" fill="#057399" width="7.145" height="11.912"/>
						<polygon fill="#055F86" points="173.318,434.41 180.464,434.41 173.318,422.497 						"/>
					</g>
					<g>
						<rect x="153.539" y="422.497" fill="#057399" width="7.144" height="11.912"/>
						<polygon fill="#055F86" points="153.539,434.41 160.683,434.41 153.539,422.497 						"/>
					</g>
					<g>
						<rect x="212.874" y="440.625" fill="#057399" width="7.145" height="11.912"/>
						<polygon fill="#055F86" points="212.874,452.538 220.019,452.538 212.874,440.625 						"/>
					</g>
					<g>
						<rect x="193.096" y="440.625" fill="#057399" width="7.145" height="11.912"/>
						<polygon fill="#055F86" points="193.096,452.538 200.241,452.538 193.096,440.625 						"/>
					</g>
					<g>
						<rect x="173.318" y="440.625" fill="#057399" width="7.145" height="11.912"/>
						<polygon fill="#055F86" points="173.318,452.538 180.464,452.538 173.318,440.625 						"/>
					</g>
					<g>
						<rect x="153.539" y="440.625" fill="#057399" width="7.144" height="11.912"/>
						<polygon fill="#055F86" points="153.539,452.538 160.683,452.538 153.539,440.625 						"/>
					</g>
				</g>
			</g>
			<g>
				<rect x="144.416" y="400.491" fill="#618186" width="86.341" height="1.536"/>
				<g>
					<rect x="144.416" y="335.727" fill="#618186" width="86.341" height="4.54"/>
					<path fill="#A0AAB3" d="M160.108,321.831c3.833-11.045,14.323-18.978,26.67-18.978c12.351,0,22.841,7.932,26.671,18.978h13.007
						v13.896h-79.354v-13.896H160.108z"/>
					<path fill="#618186" d="M165.616,331.084c0-11.688,9.475-21.163,21.161-21.163c11.69,0,21.164,9.475,21.164,21.163"/>
				</g>
			</g>
			<g>
				<rect x="222.154" y="321.831" fill="#828D97" width="4.302" height="13.896"/>
				<rect x="222.154" y="340.267" fill="#828D97" width="4.302" height="60.224"/>
				<rect x="222.154" y="402.027" fill="#828D97" width="4.302" height="76.19"/>
			</g>
		</g>
		<g>
			<g>
				<g>
					<rect x="367.332" y="312.805" fill="#828D97" width="74.713" height="18.98"/>
					<rect x="389.393" y="302.828" fill="#828D97" width="30.593" height="13.729"/>
					<path fill="#828D97" d="M403.277,308.503c0,0.657,0.603,1.189,1.347,1.189l0,0c0.745,0,1.349-0.532,1.349-1.189v-30.222
						c0-0.658-0.603-1.19-1.349-1.19l0,0c-0.744,0-1.347,0.533-1.347,1.19V308.503z"/>
					<circle fill="#618186" cx="404.689" cy="279.108" r="3.185"/>
				</g>
				<rect x="360.85" y="329.525" fill="#A0AAB3" width="87.678" height="148.617"/>
			</g>
			<g>
				<g>
					<g>
						<rect x="425.052" y="319.498" fill="#057399" width="10.198" height="5.189"/>
						<polygon fill="#055F86" points="425.052,324.686 435.249,324.686 425.052,319.498 						"/>
					</g>
					<g>
						<rect x="411.984" y="319.498" fill="#057399" width="10.198" height="5.189"/>
						<polygon fill="#055F86" points="411.984,324.686 422.182,324.686 411.984,319.498 						"/>
					</g>
					<g>
						<rect x="398.915" y="319.498" fill="#057399" width="10.198" height="5.189"/>
						<polygon fill="#055F86" points="398.915,324.686 409.113,324.686 398.915,319.498 						"/>
					</g>
					<g>
						<rect x="385.349" y="319.498" fill="#057399" width="10.198" height="5.189"/>
						<polygon fill="#055F86" points="385.349,324.686 395.547,324.686 385.349,319.498 						"/>
					</g>
					<g>
						<rect x="372.281" y="319.498" fill="#057399" width="10.198" height="5.189"/>
						<polygon fill="#055F86" points="372.281,324.686 382.479,324.686 372.281,319.498 						"/>
					</g>
				</g>
				<g>
					<rect x="381.046" y="454.026" fill="#057399" width="47.484" height="24.156"/>
					<polygon fill="#055F86" points="381.046,478.182 428.529,478.182 381.046,454.026 					"/>
				</g>
				<g>
					<g>
						<rect x="406.647" y="347.312" fill="#057399" width="10.197" height="5.189"/>
						<polygon fill="#055F86" points="406.647,352.501 416.843,352.501 406.647,347.312 						"/>
					</g>
					<g>
						<rect x="419.714" y="365.91" fill="#057399" width="10.198" height="5.189"/>
						<polygon fill="#055F86" points="419.714,371.099 429.912,371.099 419.714,365.91 						"/>
					</g>
					<g>
						<rect x="393.079" y="347.312" fill="#057399" width="10.198" height="5.189"/>
						<polygon fill="#055F86" points="393.079,352.501 403.277,352.501 393.079,347.312 						"/>
					</g>
					<g>
						<rect x="380.012" y="347.312" fill="#057399" width="10.198" height="5.189"/>
						<polygon fill="#055F86" points="380.012,352.501 390.21,352.501 380.012,347.312 						"/>
					</g>
					<g>
						<rect x="366.943" y="347.312" fill="#057399" width="10.198" height="5.189"/>
						<polygon fill="#055F86" points="366.943,352.501 377.141,352.501 366.943,347.312 						"/>
					</g>
					<g>
						<rect x="432.782" y="337.44" fill="#057399" width="10.197" height="5.19"/>
						<polygon fill="#055F86" points="432.782,342.63 442.979,342.63 432.782,337.44 						"/>
					</g>
					<g>
						<rect x="419.714" y="337.44" fill="#057399" width="10.198" height="5.19"/>
						<polygon fill="#055F86" points="419.714,342.63 429.912,342.63 419.714,337.44 						"/>
					</g>
					<g>
						<rect x="406.647" y="337.44" fill="#057399" width="10.197" height="5.19"/>
						<polygon fill="#055F86" points="406.647,342.63 416.843,342.63 406.647,337.44 						"/>
					</g>
					<g>
						<rect x="432.782" y="346.731" fill="#057399" width="10.197" height="5.188"/>
						<polygon fill="#055F86" points="432.782,351.919 442.979,351.919 432.782,346.731 						"/>
					</g>
					<g>
						<rect x="419.714" y="346.731" fill="#057399" width="10.198" height="5.188"/>
						<polygon fill="#055F86" points="419.714,351.919 429.912,351.919 419.714,346.731 						"/>
					</g>
					<g>
						<rect x="432.782" y="356.02" fill="#057399" width="10.197" height="5.188"/>
						<polygon fill="#055F86" points="432.782,361.208 442.979,361.208 432.782,356.02 						"/>
					</g>
					<g>
						<rect x="419.714" y="356.02" fill="#057399" width="10.198" height="5.188"/>
						<polygon fill="#055F86" points="419.714,361.208 429.912,361.208 419.714,356.02 						"/>
					</g>
					<g>
						<rect x="406.647" y="356.02" fill="#057399" width="10.197" height="5.188"/>
						<polygon fill="#055F86" points="406.647,361.208 416.843,361.208 406.647,356.02 						"/>
					</g>
					<g>
						<rect x="432.782" y="365.31" fill="#057399" width="10.197" height="5.188"/>
						<polygon fill="#055F86" points="432.782,370.499 442.979,370.499 432.782,365.31 						"/>
					</g>
					<g>
						<rect x="406.647" y="365.31" fill="#057399" width="10.197" height="5.188"/>
						<polygon fill="#055F86" points="406.647,370.499 416.843,370.499 406.647,365.31 						"/>
					</g>
					<g>
						<rect x="393.079" y="337.44" fill="#057399" width="10.198" height="5.19"/>
						<polygon fill="#055F86" points="393.079,342.63 403.277,342.63 393.079,337.44 						"/>
					</g>
					<g>
						<rect x="380.012" y="337.44" fill="#057399" width="10.198" height="5.19"/>
						<polygon fill="#055F86" points="380.012,342.63 390.21,342.63 380.012,337.44 						"/>
					</g>
					<g>
						<rect x="366.943" y="337.44" fill="#057399" width="10.198" height="5.19"/>
						<polygon fill="#055F86" points="366.943,342.63 377.141,342.63 366.943,337.44 						"/>
					</g>
					<g>
						<rect x="393.079" y="356.02" fill="#057399" width="10.198" height="5.188"/>
						<polygon fill="#055F86" points="393.079,361.208 403.277,361.208 393.079,356.02 						"/>
					</g>
					<g>
						<rect x="380.012" y="356.02" fill="#057399" width="10.198" height="5.188"/>
						<polygon fill="#055F86" points="380.012,361.208 390.21,361.208 380.012,356.02 						"/>
					</g>
					<g>
						<rect x="366.943" y="356.02" fill="#057399" width="10.198" height="5.188"/>
						<polygon fill="#055F86" points="366.943,361.208 377.141,361.208 366.943,356.02 						"/>
					</g>
					<g>
						<rect x="393.079" y="365.31" fill="#057399" width="10.198" height="5.188"/>
						<polygon fill="#055F86" points="393.079,370.499 403.277,370.499 393.079,365.31 						"/>
					</g>
					<g>
						<rect x="380.012" y="365.31" fill="#057399" width="10.198" height="5.188"/>
						<polygon fill="#055F86" points="380.012,370.499 390.21,370.499 380.012,365.31 						"/>
					</g>
					<g>
						<rect x="366.943" y="365.31" fill="#057399" width="10.198" height="5.188"/>
						<polygon fill="#055F86" points="366.943,370.499 377.141,370.499 366.943,365.31 						"/>
					</g>
					<g>
						<g>
							<rect x="432.782" y="375.858" fill="#057399" width="10.197" height="5.189"/>
							<polygon fill="#055F86" points="432.782,381.047 442.979,381.047 432.782,375.858 							"/>
						</g>
						<g>
							<rect x="419.714" y="375.858" fill="#057399" width="10.198" height="5.189"/>
							<polygon fill="#055F86" points="419.714,381.047 429.912,381.047 419.714,375.858 							"/>
						</g>
						<g>
							<rect x="406.647" y="375.858" fill="#057399" width="10.197" height="5.189"/>
							<polygon fill="#055F86" points="406.647,381.047 416.843,381.047 406.647,375.858 							"/>
						</g>
						<g>
							<rect x="432.782" y="385.149" fill="#057399" width="10.197" height="5.187"/>
							<polygon fill="#055F86" points="432.782,390.336 442.979,390.336 432.782,385.149 							"/>
						</g>
						<g>
							<rect x="419.714" y="385.149" fill="#057399" width="10.198" height="5.187"/>
							<polygon fill="#055F86" points="419.714,390.336 429.912,390.336 419.714,385.149 							"/>
						</g>
						<g>
							<rect x="406.647" y="385.149" fill="#057399" width="10.197" height="5.187"/>
							<polygon fill="#055F86" points="406.647,390.336 416.843,390.336 406.647,385.149 							"/>
						</g>
						<g>
							<rect x="432.782" y="394.438" fill="#057399" width="10.197" height="5.19"/>
							<polygon fill="#055F86" points="432.782,399.628 442.979,399.628 432.782,394.438 							"/>
						</g>
						<g>
							<rect x="419.714" y="394.438" fill="#057399" width="10.198" height="5.19"/>
							<polygon fill="#055F86" points="419.714,399.628 429.912,399.628 419.714,394.438 							"/>
						</g>
						<g>
							<rect x="406.647" y="394.438" fill="#057399" width="10.197" height="5.19"/>
							<polygon fill="#055F86" points="406.647,399.628 416.843,399.628 406.647,394.438 							"/>
						</g>
						<g>
							<rect x="432.782" y="403.727" fill="#057399" width="10.197" height="5.19"/>
							<polygon fill="#055F86" points="432.782,408.917 442.979,408.917 432.782,403.727 							"/>
						</g>
						<g>
							<rect x="419.714" y="403.727" fill="#057399" width="10.198" height="5.19"/>
							<polygon fill="#055F86" points="419.714,408.917 429.912,408.917 419.714,403.727 							"/>
						</g>
						<g>
							<rect x="406.647" y="403.727" fill="#057399" width="10.197" height="5.19"/>
							<polygon fill="#055F86" points="406.647,408.917 416.843,408.917 406.647,403.727 							"/>
						</g>
					</g>
					<g>
						<g>
							<rect x="393.079" y="375.858" fill="#057399" width="10.198" height="5.189"/>
							<polygon fill="#055F86" points="393.079,381.047 403.277,381.047 393.079,375.858 							"/>
						</g>
						<g>
							<rect x="380.012" y="375.858" fill="#057399" width="10.198" height="5.189"/>
							<polygon fill="#055F86" points="380.012,381.047 390.21,381.047 380.012,375.858 							"/>
						</g>
						<g>
							<rect x="366.943" y="375.858" fill="#057399" width="10.198" height="5.189"/>
							<polygon fill="#055F86" points="366.943,381.047 377.141,381.047 366.943,375.858 							"/>
						</g>
						<g>
							<rect x="393.079" y="385.149" fill="#057399" width="10.198" height="5.187"/>
							<polygon fill="#055F86" points="393.079,390.336 403.277,390.336 393.079,385.149 							"/>
						</g>
						<g>
							<rect x="380.012" y="385.149" fill="#057399" width="10.198" height="5.187"/>
							<polygon fill="#055F86" points="380.012,390.336 390.21,390.336 380.012,385.149 							"/>
						</g>
						<g>
							<rect x="366.943" y="385.149" fill="#057399" width="10.198" height="5.187"/>
							<polygon fill="#055F86" points="366.943,390.336 377.141,390.336 366.943,385.149 							"/>
						</g>
						<g>
							<rect x="393.079" y="394.438" fill="#057399" width="10.198" height="5.19"/>
							<polygon fill="#055F86" points="393.079,399.628 403.277,399.628 393.079,394.438 							"/>
						</g>
						<g>
							<rect x="380.012" y="394.438" fill="#057399" width="10.198" height="5.19"/>
							<polygon fill="#055F86" points="380.012,399.628 390.21,399.628 380.012,394.438 							"/>
						</g>
						<g>
							<rect x="366.943" y="394.438" fill="#057399" width="10.198" height="5.19"/>
							<polygon fill="#055F86" points="366.943,399.628 377.141,399.628 366.943,394.438 							"/>
						</g>
						<g>
							<rect x="393.079" y="403.727" fill="#057399" width="10.198" height="5.19"/>
							<polygon fill="#055F86" points="393.079,408.917 403.277,408.917 393.079,403.727 							"/>
						</g>
						<g>
							<rect x="380.012" y="403.727" fill="#057399" width="10.198" height="5.19"/>
							<polygon fill="#055F86" points="380.012,408.917 390.21,408.917 380.012,403.727 							"/>
						</g>
						<g>
							<rect x="366.943" y="403.727" fill="#057399" width="10.198" height="5.19"/>
							<polygon fill="#055F86" points="366.943,408.917 377.141,408.917 366.943,403.727 							"/>
						</g>
					</g>
					<g>
						<g>
							<rect x="432.782" y="414.276" fill="#057399" width="10.197" height="5.189"/>
							<polygon fill="#055F86" points="432.782,419.465 442.979,419.465 432.782,414.276 							"/>
						</g>
						<g>
							<rect x="419.714" y="414.276" fill="#057399" width="10.198" height="5.189"/>
							<polygon fill="#055F86" points="419.714,419.465 429.912,419.465 419.714,414.276 							"/>
						</g>
						<g>
							<rect x="406.647" y="414.276" fill="#057399" width="10.197" height="5.189"/>
							<polygon fill="#055F86" points="406.647,419.465 416.843,419.465 406.647,414.276 							"/>
						</g>
						<g>
							<rect x="432.782" y="423.566" fill="#057399" width="10.197" height="5.188"/>
							<polygon fill="#055F86" points="432.782,428.753 442.979,428.753 432.782,423.566 							"/>
						</g>
						<g>
							<rect x="419.714" y="423.566" fill="#057399" width="10.198" height="5.188"/>
							<polygon fill="#055F86" points="419.714,428.753 429.912,428.753 419.714,423.566 							"/>
						</g>
						<g>
							<rect x="406.647" y="423.566" fill="#057399" width="10.197" height="5.188"/>
							<polygon fill="#055F86" points="406.647,428.753 416.843,428.753 406.647,423.566 							"/>
						</g>
						<g>
							<rect x="432.782" y="432.855" fill="#057399" width="10.197" height="5.19"/>
							<polygon fill="#055F86" points="432.782,438.045 442.979,438.045 432.782,432.855 							"/>
						</g>
						<g>
							<rect x="419.714" y="432.855" fill="#057399" width="10.198" height="5.19"/>
							<polygon fill="#055F86" points="419.714,438.045 429.912,438.045 419.714,432.855 							"/>
						</g>
						<g>
							<rect x="406.647" y="432.855" fill="#057399" width="10.197" height="5.19"/>
							<polygon fill="#055F86" points="406.647,438.045 416.843,438.045 406.647,432.855 							"/>
						</g>
						<g>
							<rect x="432.782" y="442.143" fill="#057399" width="10.197" height="5.191"/>
							<polygon fill="#055F86" points="432.782,447.334 442.979,447.334 432.782,442.143 							"/>
						</g>
						<g>
							<rect x="419.714" y="442.143" fill="#057399" width="10.198" height="5.191"/>
							<polygon fill="#055F86" points="419.714,447.334 429.912,447.334 419.714,442.143 							"/>
						</g>
						<g>
							<rect x="406.647" y="442.143" fill="#057399" width="10.197" height="5.191"/>
							<polygon fill="#055F86" points="406.647,447.334 416.843,447.334 406.647,442.143 							"/>
						</g>
					</g>
					<g>
						<g>
							<rect x="393.079" y="414.276" fill="#057399" width="10.198" height="5.189"/>
							<polygon fill="#055F86" points="393.079,419.465 403.277,419.465 393.079,414.276 							"/>
						</g>
						<g>
							<rect x="380.012" y="414.276" fill="#057399" width="10.198" height="5.189"/>
							<polygon fill="#055F86" points="380.012,419.465 390.21,419.465 380.012,414.276 							"/>
						</g>
						<g>
							<rect x="366.943" y="414.276" fill="#057399" width="10.198" height="5.189"/>
							<polygon fill="#055F86" points="366.943,419.465 377.141,419.465 366.943,414.276 							"/>
						</g>
						<g>
							<rect x="393.079" y="423.566" fill="#057399" width="10.198" height="5.188"/>
							<polygon fill="#055F86" points="393.079,428.753 403.277,428.753 393.079,423.566 							"/>
						</g>
						<g>
							<rect x="380.012" y="423.566" fill="#057399" width="10.198" height="5.188"/>
							<polygon fill="#055F86" points="380.012,428.753 390.21,428.753 380.012,423.566 							"/>
						</g>
						<g>
							<rect x="366.943" y="423.566" fill="#057399" width="10.198" height="5.188"/>
							<polygon fill="#055F86" points="366.943,428.753 377.141,428.753 366.943,423.566 							"/>
						</g>
						<g>
							<rect x="393.079" y="432.855" fill="#057399" width="10.198" height="5.19"/>
							<polygon fill="#055F86" points="393.079,438.045 403.277,438.045 393.079,432.855 							"/>
						</g>
						<g>
							<rect x="380.012" y="432.855" fill="#057399" width="10.198" height="5.19"/>
							<polygon fill="#055F86" points="380.012,438.045 390.21,438.045 380.012,432.855 							"/>
						</g>
						<g>
							<rect x="366.943" y="432.855" fill="#057399" width="10.198" height="5.19"/>
							<polygon fill="#055F86" points="366.943,438.045 377.141,438.045 366.943,432.855 							"/>
						</g>
						<g>
							<rect x="393.079" y="442.143" fill="#057399" width="10.198" height="5.191"/>
							<polygon fill="#055F86" points="393.079,447.334 403.277,447.334 393.079,442.143 							"/>
						</g>
						<g>
							<rect x="380.012" y="442.143" fill="#057399" width="10.198" height="5.191"/>
							<polygon fill="#055F86" points="380.012,447.334 390.21,447.334 380.012,442.143 							"/>
						</g>
						<g>
							<rect x="366.943" y="442.143" fill="#057399" width="10.198" height="5.191"/>
							<polygon fill="#055F86" points="366.943,447.334 377.141,447.334 366.943,442.143 							"/>
						</g>
					</g>
				</g>
			</g>
			<g>
				<g>
					<g>
						<path fill="#32B77C" d="M432.251,478.216c0,0-3.36-8.627,6.463-11.762c9.82,3.135,6.461,11.762,6.461,11.762"/>
					</g>
					<g opacity="0.1">
						<path fill="#0D0E0E" d="M445.175,478.216c0,0,3.359-8.627-6.463-11.762v11.762"/>
					</g>
				</g>
				<g>
					<g>
						<path fill="#32B77C" d="M363.484,478.216c0,0-3.36-8.627,6.463-11.762c9.821,3.135,6.461,11.762,6.461,11.762"/>
					</g>
					<g opacity="0.1">
						<path fill="#0D0E0E" d="M376.407,478.216c0,0,3.36-8.627-6.462-11.762v11.762"/>
					</g>
				</g>
			</g>
		</g>
		<g>
			<g>
				<rect x="15.619" y="429.108" fill="#C33C32" width="61.76" height="45.878"/>
				<g>
					<path fill="#981B1E" d="M79.267,427.64v3.569c0,1.645-1.334,2.978-2.979,2.978c-1.646,0-2.98-1.333-2.98-2.978v-3.569H79.267z"
						/>
					<path fill="#B6BBBF" d="M73.308,427.64v3.569c0,1.645-1.334,2.978-2.978,2.978c-1.646,0-2.98-1.333-2.98-2.978v-3.569H73.308z"
						/>
					<path fill="#981B1E" d="M67.35,427.64v3.569c0,1.645-1.334,2.978-2.978,2.978c-1.645,0-2.979-1.333-2.979-2.978v-3.569H67.35z"
						/>
					<path fill="#B6BBBF" d="M61.392,427.64v3.569c0,1.645-1.333,2.978-2.977,2.978c-1.645,0-2.979-1.333-2.979-2.978v-3.569H61.392
						z"/>
					<path fill="#981B1E" d="M55.435,427.64v3.569c0,1.645-1.334,2.978-2.98,2.978c-1.644,0-2.979-1.333-2.979-2.978v-3.569H55.435z
						"/>
					<path fill="#B6BBBF" d="M49.476,427.64v3.569c0,1.645-1.334,2.978-2.978,2.978c-1.644,0-2.979-1.333-2.979-2.978v-3.569H49.476
						z"/>
					<path fill="#981B1E" d="M43.518,427.64v3.569c0,1.645-1.332,2.978-2.978,2.978c-1.643,0-2.977-1.333-2.977-2.978v-3.569H43.518
						z"/>
					<path fill="#B6BBBF" d="M37.563,427.64v3.569c0,1.645-1.334,2.978-2.981,2.978c-1.644,0-2.98-1.333-2.98-2.978v-3.569H37.563z"
						/>
					<path fill="#981B1E" d="M31.603,427.64v3.569c0,1.645-1.332,2.978-2.976,2.978c-1.645,0-2.979-1.333-2.979-2.978v-3.569H31.603
						z"/>
					<path fill="#B6BBBF" d="M25.647,427.64v3.569c0,1.645-1.335,2.978-2.978,2.978c-1.644,0-2.982-1.333-2.982-2.978v-3.569H25.647
						z"/>
					<path fill="#981B1E" d="M19.687,427.64v3.569c0,1.645-1.332,2.978-2.978,2.978c-1.641,0-2.977-1.333-2.977-2.978v-3.569H19.687
						z"/>
					<polygon fill="#C33C32" points="71.761,416.549 79.267,427.638 73.308,427.638 66.834,416.549 					"/>
					<polygon fill="#E6E5E7" points="66.834,416.549 73.308,427.638 67.35,427.638 62.165,416.549 					"/>
					<polygon fill="#C33C32" points="62.423,416.549 67.35,427.638 61.392,427.638 57.24,416.549 					"/>
					<polygon fill="#E6E5E7" points="57.24,416.549 61.392,427.638 55.435,427.638 53.333,416.549 					"/>
					<polygon fill="#C33C32" points="53.333,416.549 55.435,427.638 49.476,427.638 48.935,416.549 					"/>
					<polygon fill="#E6E5E7" points="48.935,416.549 49.476,427.638 43.518,427.638 44.365,416.549 					"/>
					<polygon fill="#C33C32" points="44.357,416.549 43.518,427.638 37.563,427.638 39.836,416.549 					"/>
					<polygon fill="#E6E5E7" points="39.836,416.549 37.563,427.638 31.603,427.638 35.289,416.549 					"/>
					<polygon fill="#C33C32" points="35.722,416.549 31.603,427.638 25.647,427.638 30.683,416.549 					"/>
					<polygon fill="#E6E5E7" points="30.683,416.549 25.647,427.638 19.687,427.638 25.399,416.549 					"/>
					<polygon fill="#C33C32" points="25.399,416.549 19.687,427.638 13.731,427.638 19.897,416.549 					"/>
				</g>
				
					<rect x="19.53" y="449.01" fill="#A11D21" stroke="#981B1E" stroke-width="0.8594" stroke-miterlimit="10" width="16.419" height="25.976"/>
				<rect x="10.191" y="474.529" fill="#A11D21" width="72.616" height="3.687"/>
				<rect x="36.405" y="470.661" fill="#A11D21" width="40.973" height="1.844"/>
				<g>
					<path fill="#85BCC8" d="M28.814,442.437v-5.539c3.836,0.168,7.591,1.229,7.591,3.348v2.191H28.814z"/>
					<path fill="#85BCC8" d="M26.665,442.437h-7.592v-2.191c0-2.12,3.756-3.179,7.592-3.348V442.437z"/>
					<rect x="19.072" y="443.277" fill="#85BCC8" width="7.592" height="3.773"/>
					<rect x="28.814" y="443.277" fill="#85BCC8" width="7.591" height="3.773"/>
				</g>
				<path fill="#B6BBBF" d="M32.777,461.653c0,0.463,0.38,0.84,0.844,0.84c0.465,0,0.84-0.377,0.84-0.84
					c0-0.467-0.375-0.842-0.84-0.842C33.157,460.81,32.777,461.185,32.777,461.653z"/>
			</g>
			<g>
				<g>
					<rect x="45.474" y="441.772" fill="#9FCCD8" width="29.531" height="26.072"/>
					<polygon fill="#85BCC8" points="45.474,467.843 75.006,467.843 45.474,441.772 					"/>
				</g>
			</g>
		</g>
		<g>
			<rect x="9.876" y="478.216" fill="#F0EDED" width="460.86" height="14.186"/>
			<polygon fill="#7E8B8A" points="470.736,489.461 470.736,501.125 470.736,512.792 9.876,512.792 9.876,501.125 9.876,489.461 			
				"/>
		</g>
		<path opacity="0.9" fill="#FFFFFF" d="M76.185,294.622h5.897c1.135,0,2.058-0.921,2.058-2.057c0-1.137-0.923-2.058-2.058-2.058
			h0.144c-3.536,0-6.402-2.866-6.402-6.4c0-3.536,2.866-6.402,6.402-6.402h40.007c3.535,0,6.4,2.865,6.4,6.402
			c0,3.535-2.865,6.4-6.4,6.4h-0.972c-1.136,0-2.056,0.921-2.056,2.058c0,1.136,0.92,2.057,2.056,2.057h25.073
			c4.113,0,7.448,3.174,7.448,7.087c0,3.914-3.335,7.088-7.448,7.088H76.185c-4.114,0-7.448-3.174-7.448-7.088
			C68.738,297.797,72.071,294.622,76.185,294.622z"/>
		<path opacity="0.9" fill="#FFFFFF" d="M338.856,287.034c0,3.435,2.784,6.218,6.217,6.218h38.071c3.434,0,6.217-2.783,6.217-6.218
			l0,0c0-3.432-2.784-6.216-6.217-6.216h-38.071C341.639,280.818,338.856,283.601,338.856,287.034L338.856,287.034z"/>
		<path opacity="0.9" fill="#FFFFFF" d="M42.486,362.014h19.945c0.904,0,1.637-0.735,1.637-1.638c0-0.903-0.733-1.636-1.637-1.636
			h-0.772c-2.812,0-5.093-2.28-5.093-5.092c0-2.813,2.282-5.092,5.093-5.092h31.824c2.813,0,5.092,2.28,5.092,5.092
			c0,2.813-2.28,5.092-5.092,5.092h0.114c-0.904,0-1.636,0.733-1.636,1.636c0,0.903,0.732,1.638,1.636,1.638h4.692
			c3.272,0,5.924,2.523,5.924,5.636c0,3.113-2.651,5.639-5.924,5.639H42.486c-3.271,0-5.924-2.525-5.924-5.639
			C36.562,364.536,39.215,362.014,42.486,362.014z"/>
		<path opacity="0.9" fill="#FFFFFF" d="M251.941,327.113h19.944c0.905,0,1.638-0.733,1.638-1.636c0-0.904-0.733-1.637-1.638-1.637
			h-0.772c-2.812,0-5.093-2.28-5.093-5.093c0-2.812,2.281-5.091,5.093-5.091h31.826c2.812,0,5.091,2.279,5.091,5.091
			c0,2.813-2.28,5.093-5.091,5.093h0.114c-0.905,0-1.637,0.733-1.637,1.637c0,0.903,0.733,1.636,1.637,1.636h4.691
			c3.271,0,5.924,2.523,5.924,5.638c0,3.113-2.653,5.637-5.924,5.637h-55.803c-3.271,0-5.924-2.524-5.924-5.637
			C246.016,329.636,248.669,327.113,251.941,327.113z"/>
		<g>
			<g>
				<rect x="460.02" y="467.529" fill="#B76C57" width="2.333" height="12.97"/>
				<path fill="#32B77C" d="M451.983,446.877c0-5.085,4.119-9.205,9.202-9.205c5.085,0,9.204,4.12,9.204,9.205v13.751
					c0,5.086-4.119,9.206-9.204,9.206c-5.082,0-9.202-4.12-9.202-9.206V446.877z"/>
				<path opacity="0.1" fill="#0D0E0E" d="M470.389,446.877v13.751c0,5.086-4.119,9.206-9.204,9.206v-32.162
					C466.27,437.672,470.389,441.792,470.389,446.877z"/>
			</g>
			<g>
				<rect x="243.2" y="468.88" fill="#B76C57" width="2.332" height="12.97"/>
				<path fill="#32B77C" d="M235.162,448.228c0-5.084,4.12-9.203,9.203-9.203c5.085,0,9.204,4.119,9.204,9.203v13.751
					c0,5.086-4.119,9.207-9.204,9.207c-5.083,0-9.203-4.122-9.203-9.207V448.228z"/>
				<path opacity="0.1" fill="#0D0E0E" d="M253.569,448.228v13.751c0,5.086-4.119,9.207-9.204,9.207v-32.161
					C249.449,439.025,253.569,443.144,253.569,448.228z"/>
			</g>
			<g>
				<rect x="92.656" y="468.88" fill="#B76C57" width="2.332" height="12.97"/>
				<path fill="#32B77C" d="M84.619,448.228c0-5.084,4.12-9.203,9.203-9.203c5.085,0,9.203,4.119,9.203,9.203v13.751
					c0,5.086-4.118,9.207-9.203,9.207c-5.082,0-9.203-4.122-9.203-9.207V448.228z"/>
				<path opacity="0.1" fill="#0D0E0E" d="M103.025,448.228v13.751c0,5.086-4.118,9.207-9.203,9.207v-32.161
					C98.906,439.025,103.025,443.144,103.025,448.228z"/>
			</g>
		</g>
		<g>
			<path fill="#F7F07F" d="M81,490.93c0-0.475,1.54-0.441,2.014-0.441h0.529c0.474,0-0.543-0.034-0.543,0.441v2.773
				c0,0.475,1.017,0.785,0.543,0.785h-0.529c-0.474,0-2.014-0.31-2.014-0.785V490.93z"/>
			<path fill="#E82128" d="M145.107,491.943c0.156,0.636-0.231,1.275-0.866,1.432l-1.148,0.284
				c-0.635,0.155-1.275-0.231-1.431-0.868l0,0c-0.155-0.632,0.232-1.275,0.866-1.429l1.148-0.283
				C144.311,490.924,144.952,491.31,145.107,491.943L145.107,491.943z"/>
			<path fill="#088F46" d="M128.603,478.488c-4.321,0-15.308,0-15.308,0c-5.401,0-9.686,6-11.274,9H89.97
				c-2.611,0-7.97,0.692-7.97,3.303v4.697h19.402h25.23h4.729h13.65C141.02,478.488,129.895,478.488,128.603,478.488z"/>
			<path fill="#B0B0B0" d="M83,494.461c0-0.564,1.857-0.973,2.42-0.973h59.748c0.562,0,0.833,0.409,0.833,0.973v0.204
				c0,0.564-0.27,0.823-0.833,0.823H85.42c-0.563,0-2.42-0.259-2.42-0.823V494.461z"/>
			<g>
				<circle fill="#333333" cx="96.46" cy="496.361" r="5.146"/>
				<circle fill="#B0B0B0" cx="96.461" cy="496.361" r="3.459"/>
				<circle fill="#C8C8C8" cx="96.46" cy="496.361" r="2.637"/>
			</g>
			<g>
				<circle fill="#333333" cx="134.303" cy="496.361" r="5.147"/>
				<circle fill="#B0B0B0" cx="134.303" cy="496.361" r="3.46"/>
				<circle fill="#C8C8C8" cx="134.303" cy="496.361" r="2.637"/>
			</g>
			<path fill="#A8CEDE" d="M104.162,487.488h34.296c0,0-3.549-6.625-9.79-6.625c0,0-11.36,0.213-15.513,0.213
				C111.283,481.076,107.842,482.488,104.162,487.488z"/>
			<rect x="118" y="478.488" fill="#088F46" width="3" height="9"/>
			<path fill="#046937" d="M113,489.257c0-0.435,1.692,0.232,2.129,0.232h2.797c0.436,0,0.074-0.666,0.074-0.232v0.614
				c0,0.433,0.362,0.617-0.074,0.617h-2.797c-0.437,0-2.129-0.184-2.129-0.617V489.257z"/>
			<path fill="#046937" d="M121,489.257c0-0.435,0.257,0.232,0.694,0.232h2.799c0.436,0-0.493-0.666-0.493-0.232v0.614
				c0,0.433,0.929,0.617,0.493,0.617h-2.799c-0.437,0-0.694-0.184-0.694-0.617V489.257z"/>
			<path fill="#046937" d="M110,484.988c0-0.502-0.788-0.898-1.292-0.898l-4.338,0.396c-0.502,0-1.37,0.395-1.37,0.895v1.453
				c0,0.502,0.691,0.804,1.192,0.804l4.324-0.396c0.505,0,1.484-0.301,1.484-0.803V484.988z"/>
		</g>
		<g>
			<g>
				<path fill="#BE292E" d="M292.277,484.695c0,0-0.468-3.207-3.086-3.207c-2.62,0-21.1,0-22.631,0
					c-0.982,0-1.725-0.411-3.117,1.386c-1.906,2.453-4.365,5.109-4.365,5.109s-9.631,1.188-12.437,2.451
					c-1.928,0.866-2.276,3.61-2.276,5.835c0,3.228,2.306,3.22,2.306,3.22s32.653,0,43.828,0c0.964,0,3.086,0.063,3.086-1.961
					C293.586,495.5,292.277,484.695,292.277,484.695z"/>
				<g>
					<path fill="#801A1A" d="M293.585,496.365c0,2.025-2.123,3.123-3.086,3.123c-11.175,0-43.828,0-43.828,0s-2.281,0-2.305-5
						h49.169C293.565,495.488,293.585,496.126,293.585,496.365z"/>
				</g>
				<path fill="#333333" d="M259.079,487.931l4.446-5.443h14.631c0.207,0-1.156-0.121-1.156,0.085v4.863
					c0,0.204,0.599,0.446,0.391,0.446L259.079,487.931z"/>
				<path fill="#333333" d="M280.368,482.488h8.262c1.033,0,1.816,0.607,1.816,1.636l0.346,4.128c0,0.21-0.113,1.236-0.32,1.236
					h-10.103c-0.206,0-0.368-1.848-0.368-2.051v-4.863C280,482.368,280.162,482.488,280.368,482.488z"/>
				<path fill="#333333" d="M278,489.879c0-0.216-0.175-0.391-0.391-0.391h-3.218c-0.216,0-0.391,0.175-0.391,0.391v0.218
					c0,0.216,0.175,0.391,0.391,0.391h3.218c0.216,0,0.391-0.175,0.391-0.391V489.879z"/>
				<path fill="#333333" d="M291,492.645c0,1.044,1.881,0.843,2.963,0.843h0.317c1.082,0,0.72,0.201,0.72-0.843v-5.11
					c0-1.044,0.362-2.047-0.72-2.047h-0.317c-1.082,0-2.963,1.003-2.963,2.047V492.645z"/>
				<path fill="#333333" d="M289.565,499.488c0-5-2.972-6.639-6.64-6.639c-3.667,0-6.64,1.639-6.64,6.639H289.565z"/>
				<path fill="#333333" d="M262.259,499.488c0-5-2.973-6.639-6.64-6.639c-3.667,0-6.64,1.639-6.64,6.639H262.259z"/>
				<path fill="#333333" d="M277.969,499.778c0,2.74,2.219,4.957,4.956,4.957c2.736,0,4.956-2.217,4.956-4.957
					c0-2.735-2.219-4.955-4.956-4.955C280.188,494.823,277.969,497.043,277.969,499.778z"/>
				<path fill="#C8C8C8" d="M279.143,499.778c0,2.091,1.694,3.785,3.783,3.785c2.088,0,3.782-1.694,3.782-3.785
					c0-2.086-1.694-3.78-3.782-3.78C280.837,495.998,279.143,497.692,279.143,499.778z"/>
				<path fill="#333333" d="M250.663,499.778c0,2.74,2.219,4.957,4.956,4.957c2.738,0,4.956-2.217,4.956-4.957
					c0-2.735-2.219-4.955-4.956-4.955C252.882,494.823,250.663,497.043,250.663,499.778z"/>
				<path fill="#C8C8C8" d="M251.837,499.778c0,2.091,1.693,3.785,3.782,3.785c2.089,0,3.783-1.694,3.783-3.785
					c0-2.086-1.693-3.78-3.783-3.78C253.53,495.998,251.837,497.692,251.837,499.778z"/>
				<g>
					<path fill="#F7F07F" d="M245.673,490.488c0.793,0,1.327,1.829,1.327,2.775v0.144c0,0.946-0.534,1.082-1.327,1.082h-1.276
						c0.076-1,0.32-1,0.937-4H245.673z"/>
				</g>
			</g>
			<rect x="264" y="482.488" fill="#BE292E" width="0" height="7"/>
			<path fill="#801A1A" d="M268,487.771c0-0.156-0.127-0.283-0.283-0.283h-3.434c-0.156,0-0.283,0.127-0.283,0.283v0.434
				c0,0.156,0.127,0.283,0.283,0.283h3.434c0.156,0,0.283-0.127,0.283-0.283V487.771z"/>
		</g>
		<g>
			<path fill="#FFC808" d="M216.175,478.488h-5.867c-10.372,0-12.301,5.43-16.291,8.021c-2.829,1.831-5.172,2.047-6.696,2.42
				c-2.192,0.538-3.454,1.979-4.042,3.118c-0.572,1.105-0.838,3.941-0.838,5.188c0,1.43,0.96,2.253,1.887,2.253h43.581
				c0.925,0,1.387-1.352,1.467-2.272c0.127-1.462,0.318-4.443,0-5.909C228.327,486.49,224.503,478.488,216.175,478.488z"/>
			<g>
				<path fill="#B0B0B0" d="M182.44,497.245c0-0.168,0.006-0.481,0.015-0.695l47.01-0.695c-0.03,0.444-0.062,1.055-0.091,1.388
					c-0.08,0.919-0.541,2.245-1.467,2.245h-43.581C183.4,499.488,182.44,498.678,182.44,497.245z"/>
			</g>
			<path fill="#EBA322" d="M225.696,499.488c0-5-2.809-6.27-6.273-6.27c-3.465,0-6.273,1.27-6.273,6.27H225.696z"/>
			<circle fill="#333333" cx="219.462" cy="499.143" r="4.915"/>
			<circle fill="#B0B0B0" cx="219.462" cy="499.143" r="3.303"/>
			<path fill="#EBA322" d="M199.27,499.488c0-5-2.808-6.27-6.272-6.27c-3.465,0-6.273,1.27-6.273,6.27H199.27z"/>
			<circle fill="#333333" cx="193.037" cy="499.143" r="4.915"/>
			<circle fill="#B0B0B0" cx="193.038" cy="499.143" r="3.304"/>
			<g>
				<path fill="#E82128" d="M229.845,492.492c0.456,0.16,1.155,0.591,1.155,1.102v0.134c0,0.521-0.514,0.958-0.986,1.11
					C230.053,494.068,229.873,493.24,229.845,492.492z"/>
				<path fill="#F7F07F" d="M185.243,490.614c0.585,0.32,0.8,1.057,0.478,1.642l-0.478,0.868c-0.32,0.585-1.056,0.8-1.642,0.477
					l-0.121-0.067c-0.247-0.134-0.422-0.345-0.526-0.585c0.095-0.34,0.201-0.644,0.323-0.88c0.276-0.534,0.701-1.128,1.299-1.665
					c0.186,0.007,0.371,0.049,0.545,0.144L185.243,490.614z"/>
			</g>
			<path fill="#A8CEDE" d="M206,480.037c0,0-6.645,1.451-10.21,9.451H206V480.037z"/>
			<rect x="206" y="481.488" fill="#A8CEDE" width="10" height="8"/>
			<path fill="#A8CEDE" d="M218,480.037v9.451c0,0,4.514,0,7.342,0C228.246,489.488,223,480.265,218,480.037z"/>
			<path fill="#333333" d="M204.823,489.204c0,0.215-0.11,0.737,0.106,0.737h1.329c0.215,0,0.128-0.522,0.128-0.737v-0.273
				c0-0.215,0.087-0.554-0.128-0.554h-1.329c-0.216,0-0.106,0.339-0.106,0.554V489.204z"/>
			<path fill="#333333" d="M218,489.879c0-0.216-0.174-0.39-0.389-0.39h-2.221c-0.215,0-0.389,0.175-0.389,0.39v0.219
				c0,0.216,0.174,0.39,0.389,0.39h2.221c0.215,0,0.389-0.175,0.389-0.39V489.879z"/>
			<path fill="#EBA322" d="M195,487.242c0-0.224,0.296,0.247,0.571,0.247h3.456c0.273,0-1.027-0.471-1.027-0.247v1.409
				c0,0.226,1.3,0.838,1.027,0.838h-3.456c-0.275,0-0.571-0.612-0.571-0.838V487.242z"/>
		</g>
		<g>
			<path fill="#ED7823" d="M424.036,478.488c-6.994,0-21.252,0-27.98,0c-4.318,0-7.377,9-9.765,9c-1.701,0-6.06,0-6.06,0
				c-3.166,0-6.231,2.588-6.231,5.754c0,0.825,0,3.728,0,3.728c0,1.108,1.396-0.482,2.505-0.482h3.726h51.432
				c1.108,0,1.337,1.589,1.337,0.482c0,0,0-6.137,0-8.601C433,483.609,427.432,478.488,424.036,478.488z"/>
			<path fill="#E82128" d="M433,491.684c0,0,0-0.116,0,1.251v0.766c0,0.875,0,1.038,0,1.038l0,0V491.684L433,491.684z"/>
			<g>
				<path fill="#F7F07F" d="M379,491.408v-2.293c0-0.145-1.368-0.284-1.396-0.42c-1.366,1.048-3.604,2.692-3.604,4.547
					c0,0.316,0-0.439,0,0.207c0,0.009,1.504,0.023,1.582,0.023C376.722,493.473,379,492.547,379,491.408z"/>
			</g>
			<path fill="#A8CEDE" d="M417,487.113c0,0.76-0.616,1.376-1.377,1.376h-10.246c-0.76,0-1.377-0.616-1.377-1.376v-4.249
				c0-0.76,0.616-1.376,1.377-1.376h10.246c0.76,0,1.377,0.616,1.377,1.376V487.113z"/>
			<path fill="#A8CEDE" d="M431.834,488.012c0.169,0.741-0.616,1.477-1.376,1.477h-9.173c-0.76,0-2.284-2.137-2.284-2.897v-5.047
				c0-0.758,1.524-0.055,2.284-0.055c0,0,2.523,0,3.669,0C427.821,481.488,431.346,485.875,431.834,488.012z"/>
			<path fill="#A8CEDE" d="M402,486.591c0,0.76,1.237,2.897,0.478,2.897h-10.55c-0.76,0-1.376-0.646-1.376-1.477
				c0-2.322,3.517-6.523,5.963-6.523h5.964c0.759,0-0.478-0.703-0.478,0.055V486.591z"/>
			<g>
				<path fill="#C86628" d="M376.505,496.488h3.726h51.432c1.108,0,1.337,1.589,1.337,0.482c0,0,0-1.482,0-2.482h-59
					c0,1,0,2.482,0,2.482C374,498.078,375.396,496.488,376.505,496.488z"/>
			</g>
			<g>
				<path fill="#C86628" d="M378.325,496.488c0-2,2.608-5.823,5.822-5.823c3.216,0,5.823,3.823,5.823,5.823H378.325z"/>
				<circle fill="#333333" cx="384.113" cy="499.268" r="4.562"/>
				<circle fill="#B0B0B0" cx="384.112" cy="499.268" r="3.066"/>
			</g>
			<g>
				<path fill="#C86628" d="M416.396,496.488c0-2,2.607-5.823,5.824-5.823c3.216,0,5.823,3.823,5.823,5.823H416.396z"/>
				<circle fill="#333333" cx="422.184" cy="499.268" r="4.562"/>
				<circle fill="#B0B0B0" cx="422.183" cy="499.268" r="3.066"/>
			</g>
			<path fill="#333333" d="M403.793,489.988c0,0.274-0.206,0.5-0.459,0.5h-3.226c-0.254,0-0.459-0.226-0.459-0.5l0,0
				c0-0.274,0.205-0.5,0.459-0.5h3.226C403.587,489.488,403.793,489.714,403.793,489.988L403.793,489.988z"/>
			<path fill="#333333" d="M416,489.988c0,0.276-0.224,0.5-0.5,0.5h-3c-0.276,0-0.5-0.224-0.5-0.5l0,0c0-0.276,0.224-0.5,0.5-0.5h3
				C415.776,489.488,416,489.712,416,489.988L416,489.988z"/>
			<path fill="#C86628" d="M389,486.617c0-0.529,1.04-0.942,1.568-0.942l3.166-0.022c0.527,0,0.265,0.416,0.265,0.942v1.309
				c0,0.528,0.554,0.844,0.027,0.844l-3.897,0.023c-0.528,0-1.13-0.317-1.13-0.844V486.617z"/>
		</g>
	</g>
</g>
</svg>
