<?xml version="1.0" encoding="utf-8"?>
<!-- Generator: Adobe Illustrator 17.0.0, SVG Export Plug-In . SVG Version: 6.00 Build 0)  -->
<!DOCTYPE svg PUBLIC "-//W3C//DTD SVG 1.1//EN" "http://www.w3.org/Graphics/SVG/1.1/DTD/svg11.dtd">
<svg version="1.1" id="Layer_1" xmlns="http://www.w3.org/2000/svg" xmlns:xlink="http://www.w3.org/1999/xlink" x="0px" y="0px"
	 width="479.047px" height="733.721px" viewBox="0 0 479.047 733.721" enable-background="new 0 0 479.047 733.721"
	 xml:space="preserve">
<g>
	<g>
		<path fill="#BBE4EC" d="M32.038,637.52h11.005c3.144,0,5.717-2.573,5.717-5.717l0-373.918c0-3.144-2.573-5.717-5.717-5.717H32.038
			c-3.144,0-5.717,2.573-5.717,5.717l0,373.918C26.321,634.947,28.893,637.52,32.038,637.52z"/>
		<path fill="#BBE4EC" d="M441.165,613.622h11.557c3.302,0,6.004-2.702,6.004-6.004V300.749c0-3.302-2.702-6.004-6.004-6.004
			h-11.557c-3.302,0-6.004,2.702-6.004,6.004v306.869C435.161,610.92,437.862,613.622,441.165,613.622z"/>
		<path fill="#BBE4EC" d="M184.879,648.565h11.557c3.302,0,6.004-2.702,6.004-6.004V255.059c0-3.302-2.702-6.004-6.004-6.004
			h-11.557c-3.302,0-6.004,2.702-6.004,6.004l0,387.502C178.875,645.863,181.577,648.565,184.879,648.565z"/>
		<path fill="#BBE4EC" d="M83.295,613.287h11.005c3.144,0,5.717-2.573,5.717-5.717l0-310.122c0-3.144-2.573-5.717-5.717-5.717
			H83.295c-3.144,0-5.717,2.573-5.717,5.717l0,310.122C77.578,610.714,80.151,613.287,83.295,613.287z"/>
		<path fill="#BBE4EC" d="M338.651,606.133h11.557c3.302,0,6.004-2.702,6.004-6.004l0-284.408c0-3.302-2.702-6.004-6.004-6.004
			h-11.557c-3.302,0-6.004,2.702-6.004,6.004v284.408C332.646,603.431,335.348,606.133,338.651,606.133z"/>
		<path fill="#BBE4EC" d="M236.136,612.625h11.557c3.302,0,6.004-2.702,6.004-6.004v-294.23c0-3.302-2.702-6.004-6.004-6.004
			h-11.557c-3.302,0-6.004,2.702-6.004,6.004v294.23C230.132,609.923,232.834,612.625,236.136,612.625z"/>
		<path fill="#BBE4EC" d="M134.552,627.41h11.005c3.144,0,5.717-2.573,5.717-5.717V271.258c0-3.144-2.573-5.717-5.717-5.717h-11.005
			c-3.144,0-5.717,2.573-5.717,5.717v350.435C128.835,624.837,131.408,627.41,134.552,627.41z"/>
		<path fill="#BBE4EC" d="M287.393,626.586h11.557c3.302,0,6.004-2.702,6.004-6.004V285.086c0-3.302-2.702-6.004-6.004-6.004
			h-11.557c-3.302,0-6.004,2.702-6.004,6.004v335.495C281.389,623.884,284.091,626.586,287.393,626.586z"/>
		<path fill="#BBE4EC" d="M389.908,644.452h11.557c3.302,0,6.004-2.702,6.004-6.004V282.641c0-3.302-2.702-6.004-6.004-6.004
			h-11.557c-3.302,0-6.004,2.702-6.004,6.004v355.807C383.904,641.751,386.605,644.452,389.908,644.452z"/>
	</g>
	<g>
		<g>
			<path fill="none" stroke="#808080" stroke-width="3" stroke-miterlimit="10" d="M169.108,355.11
				c-24.66-1.652-54.884-7.712-69.098-29.147c-13.238-19.961-8.081-44.262,2.044-64.361c12.229-24.276,26.179-36.239,28.375-64.886"
				/>
			<path fill="none" stroke="#808080" stroke-width="3" stroke-miterlimit="10" d="M146.305,108.089
				c-8.12,34.151-7.579,72.592,8.063,104.607c20.953,42.886,58.981,47.457,99.725,62.756
				c102.253,38.394,58.111,175.824,28.937,250.273"/>
			<path fill="none" stroke="#808080" stroke-width="3" stroke-miterlimit="10" d="M398.89,373.699
				c27.349-16.951,50.587-63.972,25.093-92.242c-20.628-22.874-56.847-16.263-81.098-32.88
				c-16.771-11.492-28.853-30.53-31.855-50.973c-4.218-28.724,4.738-58.445,15.693-84.539"/>
			<path fill="none" stroke="#808080" stroke-width="3" stroke-miterlimit="10" d="M332.231,184.862
				c12.101,22.815,31.654,51.392,15.366,77.049c-33.319,52.48-125.409,23.93-144.868,88.673"/>
		</g>
		<g>
			<polygon fill="#404040" points="386.183,81.026 386.183,94.163 299.716,135.152 278.278,130.73 			"/>
			<g>
				<polygon fill="#939393" points="88.592,101.1 130.696,86.636 382.943,157.747 344.028,174.823 				"/>
				<polygon fill="#575757" points="88.592,101.1 89.778,121.589 344.028,192.7 344.028,174.823 				"/>
				<polygon fill="#9E9E9E" points="344.028,174.823 382.943,157.747 382.943,174.823 344.028,192.7 				"/>
			</g>
			<polygon fill="#939393" points="205.291,131.479 88.592,183.438 138.181,195.805 249.623,144.314 			"/>
			<polygon fill="#939393" points="343.258,68.637 230.262,118.791 278.278,130.73 386.183,81.026 			"/>
			<polygon fill="#404040" points="136.608,195.805 138.597,210.561 241.737,162.421 244.513,146.101 			"/>
			<polygon fill="#787878" points="88.592,182.872 136.608,194.81 138.672,210.561 89.587,197.214 			"/>
		</g>
		<g>
			<g>
				<rect x="114.244" y="507.824" fill="#3E3E3E" width="111.069" height="24.295"/>
				<path fill="#303030" d="M229.266,543.842H110.29c-2.894,0-5.241-2.346-5.241-5.241v-1.241c0-2.894,2.346-5.241,5.241-5.241
					h118.976c2.894,0,5.241,2.346,5.241,5.241v1.241C234.507,541.495,232.16,543.842,229.266,543.842z"/>
				<g>
					<path fill="#4D4D4D" d="M295.775,507.824H43.781c-2.456,0-4.448-1.991-4.448-4.448V350.057c0-2.456,1.991-4.448,4.448-4.448
						h251.995c2.456,0,4.448,1.991,4.448,4.448v153.319C300.223,505.833,298.232,507.824,295.775,507.824z"/>
					<path fill="#3E3E3E" d="M285.961,498.695H53.595c-2.456,0-4.448-1.991-4.448-4.448V359.558c0-2.456,1.991-4.448,4.448-4.448
						h232.366c2.456,0,4.448,1.991,4.448,4.448v134.689C290.409,496.704,288.418,498.695,285.961,498.695z"/>
					<path fill="#FFFFFF" d="M284.94,498.013H53.595c-2.456,0-4.448-1.991-4.448-4.448V360.938c0-2.456,1.991-4.448,4.448-4.448
						H284.94c2.456,0,4.448,1.991,4.448,4.448v132.627C289.388,496.022,287.396,498.013,284.94,498.013z"/>
					<circle fill="#E75C25" cx="273.88" cy="483.903" r="9.165"/>
					<g>
						<g>
							<line fill="#E5E5E5" x1="205.831" y1="427.836" x2="263.437" y2="427.836"/>
							<line fill="#E5E5E5" x1="205.831" y1="430.89" x2="263.437" y2="430.89"/>
							<line fill="#E5E5E5" x1="205.831" y1="433.945" x2="263.437" y2="433.945"/>
							<line fill="#E5E5E5" x1="205.831" y1="437" x2="263.437" y2="437"/>
							<line fill="#E5E5E5" x1="205.831" y1="440.055" x2="263.437" y2="440.055"/>
						</g>
						<g>
							<line fill="#E5E5E5" x1="205.831" y1="442.7" x2="263.437" y2="442.7"/>
							<line fill="#E5E5E5" x1="205.831" y1="445.755" x2="263.437" y2="445.755"/>
							<line fill="#E5E5E5" x1="205.831" y1="448.81" x2="263.437" y2="448.81"/>
							<line fill="#E5E5E5" x1="205.831" y1="451.865" x2="263.437" y2="451.865"/>
							<line fill="#E5E5E5" x1="205.831" y1="454.92" x2="263.437" y2="454.92"/>
						</g>
					</g>
					<path fill="#1F71B7" d="M251.437,476.693h-33.606c-2.456,0-4.448-1.991-4.448-4.448v-2.761c0-2.456,1.991-4.448,4.448-4.448
						h33.606c2.456,0,4.448,1.991,4.448,4.448v2.761C255.884,474.702,253.893,476.693,251.437,476.693z"/>
					<path fill="#1F71B7" d="M269.941,384.074H48.657v-20.512h221.284c2.456,0,4.448,1.991,4.448,4.448v11.617
						C274.389,382.082,272.397,384.074,269.941,384.074z"/>
					<path fill="#F0EFEF" d="M124.216,431.886H73.364c-5.871,0-10.675-4.804-10.675-10.675v-20.548
						c0-5.871,4.804-10.675,10.675-10.675h50.852c5.871,0,10.675,4.804,10.675,10.675v20.548
						C134.89,427.083,130.087,431.886,124.216,431.886z"/>
					<path fill="#F0EFEF" d="M192.054,477.275h-42.996c-5.871,0-10.675-4.804-10.675-10.675v-65.936
						c0-5.871,4.804-10.675,10.675-10.675h42.996c5.871,0,10.675,4.804,10.675,10.675V466.6
						C202.729,472.471,197.925,477.275,192.054,477.275z"/>
					<path fill="#F0EFEF" d="M124.406,476.693H73.364c-5.871,0-10.675-4.804-10.675-10.675v-19.996
						c0-5.871,4.804-10.675,10.675-10.675h51.042c5.871,0,10.675,4.804,10.675,10.675v19.996
						C135.081,471.889,130.277,476.693,124.406,476.693z"/>
					<path fill="#F0EFEF" d="M252.512,425.318h-36.006c-5.871,0-10.675-4.804-10.675-10.675v-14.259
						c0-5.871,4.804-10.675,10.675-10.675h36.006c5.871,0,10.675,4.804,10.675,10.675v14.259
						C263.186,420.514,258.383,425.318,252.512,425.318z"/>
				</g>
			</g>
			<g>
				<path fill="#4D4D4D" d="M321.039,543.82V374.435c0-4.035,3.271-7.305,7.305-7.305h99.793c4.035,0,7.305,3.271,7.305,7.305
					V543.82c0,4.034-3.271,7.305-7.305,7.305h-99.793C324.309,551.125,321.039,547.854,321.039,543.82z"/>
				<path fill="#3E3E3E" d="M327.704,521.572V389.29c0-3.724,3.019-6.742,6.742-6.742h87.589c3.724,0,6.742,3.019,6.742,6.742
					v132.282c0,3.724-3.019,6.742-6.742,6.742h-87.589C330.722,528.315,327.704,525.296,327.704,521.572z"/>
				<circle fill="#3E3E3E" cx="378.241" cy="539.547" r="6.051"/>
				<path fill="#3E3E3E" d="M387.6,377.202h-18.718c-0.832,0-1.513-0.681-1.513-1.513v-0.358c0-0.832,0.681-1.513,1.513-1.513H387.6
					c0.832,0,1.513,0.681,1.513,1.513v0.358C389.113,376.521,388.432,377.202,387.6,377.202z"/>
				<path fill="#FFFFFF" d="M424.33,528.298h-92.862c-2.456,0-4.448-1.991-4.448-4.448V387.827c0-2.456,1.991-4.448,4.448-4.448
					h92.862c2.456,0,4.448,1.991,4.448,4.448v136.024C428.778,526.307,426.786,528.298,424.33,528.298z"/>
				<path fill="#1F71B7" d="M394.514,406.298h-67.791v-15.794h67.791c2.456,0,4.448,1.991,4.448,4.448v6.899
					C398.962,404.307,396.97,406.298,394.514,406.298z"/>
				<g>
					<path fill="#F0EFEF" d="M368.189,438.103h-26.817c-5.871,0-10.675-4.804-10.675-10.675v-6.601
						c0-5.871,4.804-10.675,10.675-10.675h26.817c5.871,0,10.675,4.804,10.675,10.675v6.601
						C378.864,433.299,374.06,438.103,368.189,438.103z"/>
					<path fill="#F0EFEF" d="M413.445,468.382h-21.577c-5.871,0-10.675-4.804-10.675-10.675v-36.881
						c0-5.871,4.804-10.675,10.675-10.675h21.577c5.871,0,10.675,4.804,10.675,10.675v36.881
						C424.12,463.579,419.316,468.382,413.445,468.382z"/>
					<path fill="#F0EFEF" d="M368.316,467.994h-26.944c-5.871,0-10.675-4.804-10.675-10.675v-6.233
						c0-5.871,4.804-10.675,10.675-10.675h26.944c5.871,0,10.675,4.804,10.675,10.675v6.233
						C378.991,463.19,374.187,467.994,368.316,467.994z"/>
				</g>
				<path fill="#F0EFEF" d="M368.773,501.114h-27.401c-5.871,0-10.675-4.804-10.675-10.675v-8.917
					c0-5.871,4.804-10.675,10.675-10.675h27.401c5.871,0,10.675,4.804,10.675,10.675v8.917
					C379.448,496.31,374.644,501.114,368.773,501.114z"/>
				<g>
					<g>
						<line fill="#E5E5E5" x1="383.801" y1="472.661" x2="424.12" y2="472.661"/>
						<line fill="#E5E5E5" x1="383.801" y1="475.716" x2="424.12" y2="475.716"/>
						<line fill="#E5E5E5" x1="383.801" y1="478.771" x2="424.12" y2="478.771"/>
						<line fill="#E5E5E5" x1="383.801" y1="481.826" x2="424.12" y2="481.826"/>
						<line fill="#E5E5E5" x1="383.801" y1="484.88" x2="424.12" y2="484.88"/>
					</g>
					<g>
						<line fill="#E5E5E5" x1="383.801" y1="487.525" x2="424.12" y2="487.525"/>
						<line fill="#E5E5E5" x1="383.801" y1="490.58" x2="424.12" y2="490.58"/>
						<line fill="#E5E5E5" x1="383.801" y1="493.635" x2="424.12" y2="493.635"/>
						<line fill="#E5E5E5" x1="383.801" y1="496.69" x2="424.12" y2="496.69"/>
						<line fill="#E5E5E5" x1="383.801" y1="499.745" x2="424.12" y2="499.745"/>
					</g>
				</g>
				<path fill="#1F71B7" d="M391.319,517.886h-26.156c-2.347,0-4.249-1.902-4.249-4.249v-1.006c0-2.347,1.902-4.249,4.249-4.249
					h26.156c2.347,0,4.249,1.902,4.249,4.249v1.006C395.568,515.984,393.666,517.886,391.319,517.886z"/>
				<circle fill="#E75C25" cx="417.543" cy="515.722" r="6.577"/>
			</g>
			<g>
				<path fill="#4D4D4D" d="M244.631,625.359v-96.331c0-4.035,3.271-7.305,7.305-7.305h54.37c4.035,0,7.305,3.271,7.305,7.305
					v96.331c0,4.035-3.271,7.305-7.305,7.305h-54.37C247.902,632.664,244.631,629.394,244.631,625.359z"/>
				<path fill="#3E3E3E" d="M248.65,613.561v-69.516c0-3.724,3.019-6.742,6.742-6.742h47.458c3.724,0,6.742,3.019,6.742,6.742
					v69.516c0,3.724-3.019,6.742-6.742,6.742h-47.458C251.669,620.303,248.65,617.285,248.65,613.561z"/>
				<circle fill="#3E3E3E" cx="279.121" cy="626.214" r="2.942"/>
				<path fill="#3E3E3E" d="M288.48,529.116h-18.718c-0.832,0-1.513-0.681-1.513-1.513v-0.358c0-0.832,0.681-1.513,1.513-1.513
					h18.718c0.832,0,1.513,0.681,1.513,1.513v0.358C289.994,528.435,289.313,529.116,288.48,529.116z"/>
				<path fill="#FFFFFF" d="M304.132,620.898h-49.944c-2.456,0-4.448-1.991-4.448-4.448v-74.7c0-2.456,1.991-4.448,4.448-4.448
					h49.944c2.456,0,4.448,1.991,4.448,4.448v74.7C308.58,618.907,306.589,620.898,304.132,620.898z"/>
				<path fill="#1F71B7" d="M292.945,553.103H249.25v-13.812h43.695c2.456,0,4.448,1.991,4.448,4.448v4.917
					C297.393,551.112,295.402,553.103,292.945,553.103z"/>
				<path fill="#F0EFEF" d="M292.371,585.448h-27.401c-5.871,0-10.675-4.804-10.675-10.675v-8.917
					c0-5.871,4.804-10.675,10.675-10.675h27.401c5.871,0,10.675,4.804,10.675,10.675v8.917
					C303.045,580.645,298.242,585.448,292.371,585.448z"/>
				<path fill="#F0EFEF" d="M292.371,619.286h-27.401c-5.871,0-10.675-4.804-10.675-10.675v-8.917
					c0-5.871,4.804-10.675,10.675-10.675h27.401c5.871,0,10.675,4.804,10.675,10.675v8.917
					C303.045,614.482,298.242,619.286,292.371,619.286z"/>
				<circle fill="#E75C25" cx="299.733" cy="611.22" r="6.577"/>
			</g>
		</g>
	</g>
</g>
</svg>
