<?xml version="1.0" encoding="utf-8"?>
<!-- Generator: Adobe Illustrator 17.0.0, SVG Export Plug-In . SVG Version: 6.00 Build 0)  -->
<!DOCTYPE svg PUBLIC "-//W3C//DTD SVG 1.1//EN" "http://www.w3.org/Graphics/SVG/1.1/DTD/svg11.dtd">
<svg version="1.1" id="Layer_1" xmlns="http://www.w3.org/2000/svg" xmlns:xlink="http://www.w3.org/1999/xlink" x="0px" y="0px"
	 width="479.047px" height="733.721px" viewBox="0 0 479.047 733.721" enable-background="new 0 0 479.047 733.721"
	 xml:space="preserve">
<g>
	<g>
		<g>
			<path fill="#5A5A5A" d="M60.266,686.391h1.088c5.414,0,9.844-4.43,9.844-9.844l0-606.375c0-5.414-4.43-9.844-9.844-9.844h-1.088
				c-5.414,0-9.844,4.43-9.844,9.844l0,606.375C50.422,681.961,54.852,686.391,60.266,686.391z"/>
			<path fill="#5A5A5A" d="M438.803,647.566h2.131c5.414,0,9.844-4.43,9.844-9.844l0-498.377c0-5.414-4.43-9.844-9.844-9.844h-2.131
				c-5.414,0-9.844,4.43-9.844,9.844v498.377C428.959,643.136,433.389,647.566,438.803,647.566z"/>
			<path fill="#5A5A5A" d="M201.513,704.335h2.131c5.414,0,9.844-4.43,9.844-9.844l0-629.377c0-5.414-4.43-9.844-9.844-9.844h-2.131
				c-5.414,0-9.844,4.43-9.844,9.844v629.377C191.669,699.906,196.099,704.335,201.513,704.335z"/>
			<path fill="#5A5A5A" d="M107.724,647.021h1.088c5.414,0,9.844-4.43,9.844-9.844l0-502.729c0-5.414-4.43-9.844-9.844-9.844h-1.088
				c-5.414,0-9.844,4.43-9.844,9.844l0,502.729C97.88,642.591,102.31,647.021,107.724,647.021z"/>
			<path fill="#5A5A5A" d="M343.887,635.398h2.131c5.414,0,9.844-4.43,9.844-9.844V163.67c0-5.414-4.43-9.844-9.844-9.844h-2.131
				c-5.414,0-9.844,4.43-9.844,9.844v461.885C334.043,630.969,338.473,635.398,343.887,635.398z"/>
			<path fill="#5A5A5A" d="M248.971,645.946h2.131c5.414,0,9.844-4.43,9.844-9.844V158.26c0-5.414-4.43-9.844-9.844-9.844h-2.131
				c-5.414,0-9.844,4.43-9.844,9.844v477.842C239.127,641.516,243.557,645.946,248.971,645.946z"/>
			<path fill="#5A5A5A" d="M155.182,669.966h1.088c5.414,0,9.844-4.43,9.844-9.844V91.898c0-5.414-4.43-9.844-9.844-9.844h-1.088
				c-5.414,0-9.844,4.43-9.844,9.844l0,568.223C145.338,665.536,149.768,669.966,155.182,669.966z"/>
			<path fill="#5A5A5A" d="M296.429,668.627h2.131c5.414,0,9.844-4.43,9.844-9.844V113.898c0-5.414-4.43-9.844-9.844-9.844h-2.131
				c-5.414,0-9.844,4.43-9.844,9.844v544.885C286.585,664.197,291.015,668.627,296.429,668.627z"/>
			<path fill="#5A5A5A" d="M391.345,697.654h2.131c5.414,0,9.844-4.43,9.844-9.844V109.926c0-5.414-4.43-9.844-9.844-9.844h-2.131
				c-5.414,0-9.844,4.43-9.844,9.844l0,577.885C381.501,693.224,385.931,697.654,391.345,697.654z"/>
		</g>
	</g>
	<g>
		<path fill="#FFFFFF" d="M25.779,406.204l30.338-19.984c3.863-2.486,6.33-7.808,6.33-13.657v-58.802
			c0-8.333,4.929-15.088,11.009-15.088h346.558c6.08,0,11.009,6.755,11.009,15.088v131.483c0,8.333-4.929,15.088-11.009,15.088
			H83.249c-1.498,0-2.98-0.419-4.355-1.231l-53.868-34.004C16.309,419.952,17.188,411.733,25.779,406.204z"/>
		<g>
			<g>
				<g>
					<circle fill="#434343" cx="185.899" cy="379.502" r="18.301"/>
				</g>
				<g>
					<circle fill="#434343" cx="246.515" cy="379.502" r="18.301"/>
				</g>
				<g>
					<circle fill="#434343" cx="307.13" cy="379.502" r="18.301"/>
				</g>
			</g>
		</g>
	</g>
</g>
</svg>
