<?xml version="1.0" encoding="utf-8"?>
<!-- Generator: Adobe Illustrator 17.0.0, SVG Export Plug-In . SVG Version: 6.00 Build 0)  -->
<!DOCTYPE svg PUBLIC "-//W3C//DTD SVG 1.1//EN" "http://www.w3.org/Graphics/SVG/1.1/DTD/svg11.dtd">
<svg version="1.1" id="Layer_1" xmlns="http://www.w3.org/2000/svg" xmlns:xlink="http://www.w3.org/1999/xlink" x="0px" y="0px"
	 width="338px" height="82px" viewBox="0 0 338 82" enable-background="new 0 0 338 82" xml:space="preserve">
<path fill="#4F4F4F" d="M55.906,66.921c-2.947,0.527-6.028,0.804-6.88,0.62L9.809,59.06c-0.852-0.184,0.846-0.761,3.794-1.287
	l66.71-11.916c2.947-0.527,6.026-0.799,6.879-0.614l39.217,8.481c0.852,0.184-0.845,0.755-3.793,1.282L55.906,66.921z"/>
<path fill="#FFFFFF" stroke="#7F8080" stroke-miterlimit="10" d="M56.387,63.89c-2.947,0.527-6.028,0.804-6.88,0.62L10.29,56.03
	c-0.852-0.184,0.846-0.761,3.794-1.287l66.71-11.916c2.947-0.527,6.026-0.799,6.879-0.614l39.217,8.481
	c0.852,0.184-0.845,0.755-3.793,1.282L56.387,63.89z"/>
<path fill="#7F8080" d="M54.638,57.372c-2.097,0.375-4.289,0.572-4.895,0.441L21.841,51.78c-0.606-0.131,0.602-0.541,2.699-0.916
	l47.462-8.478c2.097-0.375,4.288-0.568,4.894-0.437l27.902,6.034c0.606,0.131-0.601,0.537-2.698,0.912L54.638,57.372z"/>
<path fill="#FFFFFF" stroke="#B0B0B0" stroke-miterlimit="10" d="M55.119,54.665c-2.097,0.375-4.289,0.572-4.895,0.441
	l-27.902-6.034c-0.606-0.131,0.602-0.541,2.699-0.916l47.462-8.478c2.097-0.375,4.288-0.568,4.894-0.437l27.902,6.034
	c0.606,0.131-0.601,0.537-2.698,0.912L55.119,54.665z"/>
<path fill="#7F8080" d="M50.819,48.386c-1.455,0.26-2.975,0.397-3.395,0.306L28.07,44.507c-0.421-0.091,0.418-0.375,1.872-0.635
	l32.922-5.881c1.455-0.26,2.974-0.394,3.395-0.303l19.354,4.185c0.421,0.091-0.417,0.373-1.872,0.633L50.819,48.386z"/>
<path fill="#FFFFFF" stroke="#CBCACA" stroke-miterlimit="10" d="M51.062,45.995c-1.455,0.26-2.975,0.397-3.395,0.306l-19.354-4.185
	c-0.421-0.091,0.418-0.375,1.872-0.635L63.106,35.6c1.455-0.26,2.974-0.394,3.395-0.303l19.354,4.185
	c0.421,0.091-0.417,0.373-1.872,0.633L51.062,45.995z"/>
<g>
	<ellipse fill="#646464" cx="68.514" cy="19.885" rx="1.142" ry="4.262"/>
	
		<ellipse transform="matrix(0.5975 0.8019 -0.8019 0.5975 63.6105 -65.0424)" fill="#646464" cx="96.597" cy="30.844" rx="1.142" ry="4.262"/>
	
		<ellipse transform="matrix(0.4633 -0.8862 0.8862 0.4633 -6.8502 53.1166)" fill="#646464" cx="40.43" cy="32.214" rx="1.142" ry="4.262"/>
</g>
<g>
	<g>
		<g>
			<path fill="#4F4F4F" d="M284.484,38.92c-0.684-0.183-1.322-0.229-1.915-0.229c-4.012,0-5.334,3.283-5.334,5.152v11.672h-7.478
				V32.81h7.204v3.283h0.091c1.14-2.279,3.374-3.921,6.155-3.921c0.593,0,1.23,0.045,1.596,0.183L284.484,38.92z"/>
			<path fill="#4F4F4F" d="M295.381,38.418v8.663c0,2.097,0.685,3.191,2.827,3.191c0.729,0,1.642-0.137,2.188-0.365l0.091,5.472
				c-1.003,0.364-2.735,0.684-4.331,0.684c-6.063,0-8.07-3.237-8.07-8.069v-9.575h-3.647V32.81h3.603v-5.973h7.34v5.973h5.335v5.608
				H295.381z"/>
			<path fill="#4F4F4F" d="M317.584,39.513c-1.185-1.14-2.918-2.052-4.741-2.052c-1.413,0-2.827,0.501-2.827,1.823
				c0,1.276,1.231,1.642,4.149,2.28c3.465,0.774,7.249,2.507,7.249,6.93c0,5.745-5.061,7.751-9.711,7.751
				c-3.693,0-7.523-1.231-9.894-3.511l4.194-4.423c1.322,1.459,3.374,2.554,5.563,2.554c1.23,0,2.689-0.502,2.689-1.961
				c0-1.413-1.413-1.869-4.514-2.599c-3.146-0.729-6.611-2.325-6.611-6.611c0-5.425,5.107-7.614,9.438-7.614
				c3.374,0,6.885,1.094,9.118,3.192L317.584,39.513z"/>
		</g>
	</g>
	<g>
		<g>
			<path fill="#4F4F4F" d="M139.923,25.425v30.593h-0.912V23.646h0.684l24.757,31.049V23.646h0.912v32.371h-1.048L139.923,25.425z"
				/>
			<path fill="#4F4F4F" d="M182.918,56.474c-1.551,0-3.01-0.327-4.377-0.98c-1.368-0.653-2.562-1.534-3.579-2.645
				c-1.019-1.109-1.824-2.408-2.417-3.897s-0.889-3.056-0.889-4.696c0-1.672,0.296-3.244,0.889-4.719s1.406-2.774,2.439-3.898
				s2.234-2.013,3.602-2.667c1.368-0.653,2.812-0.98,4.332-0.98c1.52,0,2.963,0.327,4.331,0.98c1.367,0.654,2.561,1.543,3.579,2.667
				c1.018,1.125,1.831,2.424,2.439,3.898c0.607,1.475,0.911,3.047,0.911,4.719c0,1.641-0.296,3.207-0.889,4.696
				s-1.398,2.788-2.417,3.897c-1.019,1.11-2.211,1.991-3.578,2.645C185.927,56.146,184.468,56.474,182.918,56.474z M172.568,44.346
				c0,1.521,0.273,2.964,0.82,4.331c0.547,1.368,1.283,2.562,2.211,3.579c0.927,1.019,2.014,1.824,3.26,2.417
				s2.584,0.889,4.013,0.889c1.397,0,2.728-0.304,3.989-0.912c1.261-0.607,2.371-1.428,3.328-2.462
				c0.958-1.032,1.71-2.233,2.257-3.602s0.821-2.827,0.821-4.377c0-1.52-0.274-2.964-0.821-4.331
				c-0.547-1.368-1.292-2.568-2.233-3.602c-0.943-1.033-2.045-1.854-3.306-2.462c-1.262-0.608-2.592-0.912-3.989-0.912
				c-1.398,0-2.729,0.304-3.99,0.912c-1.261,0.608-2.363,1.436-3.305,2.485c-0.942,1.048-1.688,2.265-2.234,3.647
				S172.568,42.796,172.568,44.346z"/>
			<path fill="#4F4F4F" d="M217.522,56.018l-10.076-13.541l-6.429,5.836v7.705h-0.912V22.735h0.912v24.346l16.14-14.635h1.231
				l-10.259,9.392l10.486,14.18H217.522z"/>
			<path fill="#4F4F4F" d="M231.565,56.474c-1.551,0-3.01-0.327-4.377-0.98c-1.368-0.653-2.562-1.534-3.579-2.645
				c-1.019-1.109-1.824-2.408-2.417-3.897s-0.889-3.056-0.889-4.696c0-1.672,0.296-3.244,0.889-4.719s1.406-2.774,2.439-3.898
				s2.234-2.013,3.602-2.667c1.368-0.653,2.812-0.98,4.332-0.98c1.52,0,2.963,0.327,4.331,0.98c1.367,0.654,2.561,1.543,3.579,2.667
				c1.018,1.125,1.831,2.424,2.439,3.898c0.607,1.475,0.911,3.047,0.911,4.719c0,1.641-0.296,3.207-0.889,4.696
				s-1.398,2.788-2.417,3.897c-1.019,1.11-2.211,1.991-3.578,2.645C234.574,56.146,233.115,56.474,231.565,56.474z M221.216,44.346
				c0,1.521,0.273,2.964,0.82,4.331c0.547,1.368,1.283,2.562,2.211,3.579c0.927,1.019,2.014,1.824,3.26,2.417
				s2.584,0.889,4.013,0.889c1.397,0,2.728-0.304,3.989-0.912c1.261-0.607,2.371-1.428,3.328-2.462
				c0.958-1.032,1.71-2.233,2.257-3.602s0.821-2.827,0.821-4.377c0-1.52-0.274-2.964-0.821-4.331
				c-0.547-1.368-1.292-2.568-2.233-3.602c-0.943-1.033-2.045-1.854-3.306-2.462c-1.262-0.608-2.592-0.912-3.989-0.912
				c-1.398,0-2.729,0.304-3.99,0.912c-1.261,0.608-2.363,1.436-3.305,2.485c-0.942,1.048-1.688,2.265-2.234,3.647
				S221.216,42.796,221.216,44.346z"/>
		</g>
	</g>
	<g>
		<line fill="none" stroke="#4F4F4F" stroke-width="7" stroke-miterlimit="10" x1="244.948" y1="56.046" x2="255.209" y2="32.973"/>
		<path fill="none" stroke="#4F4F4F" stroke-width="7" stroke-miterlimit="10" d="M252.051,27.173
			c3.166,7.335,5.743,14.919,9.118,22.165c3.578,7.683,5.835,9.24,11.59,2.19"/>
	</g>
</g>
<g>
</g>
<g>
</g>
<g>
</g>
<g>
</g>
<g>
</g>
<g>
</g>
</svg>
