<?xml version="1.0" encoding="utf-8"?>
<!-- Generator: Adobe Illustrator 17.0.0, SVG Export Plug-In . SVG Version: 6.00 Build 0)  -->
<!DOCTYPE svg PUBLIC "-//W3C//DTD SVG 1.1//EN" "http://www.w3.org/Graphics/SVG/1.1/DTD/svg11.dtd">
<svg version="1.1" id="Layer_1" xmlns="http://www.w3.org/2000/svg" xmlns:xlink="http://www.w3.org/1999/xlink" x="0px" y="0px"
	 width="307px" height="62.356px" viewBox="0 0 307 62.356" enable-background="new 0 0 307 62.356" xml:space="preserve">
<g>
	<g>
		<g>
			<path fill="#505050" d="M43.095,51.747c-2.317,0.414-4.74,0.632-5.41,0.488L6.848,45.566c-0.67-0.145,0.665-0.598,2.983-1.012
				l52.456-9.37c2.317-0.414,4.738-0.628,5.409-0.483l30.837,6.669c0.67,0.145-0.664,0.594-2.983,1.008L43.095,51.747z"/>
		</g>
		<g>
			<path fill="#FFFFFF" d="M43.473,49.364c-2.317,0.414-4.74,0.632-5.41,0.488L7.226,43.184c-0.67-0.145,0.665-0.598,2.983-1.012
				l52.456-9.37c2.317-0.414,4.738-0.628,5.409-0.483l30.837,6.669c0.67,0.145-0.664,0.594-2.983,1.008L43.473,49.364z"/>
			<path fill="#808181" d="M38.7,50.29c-0.317,0-0.552-0.017-0.719-0.053L7.144,43.568c-0.443-0.096-0.485-0.377-0.483-0.495
				c0.005-0.282,0.012-0.67,3.48-1.289l52.456-9.37c1.787-0.319,3.73-0.535,4.832-0.535c0.322,0,0.561,0.018,0.73,0.054
				l30.836,6.669c0.443,0.096,0.485,0.377,0.483,0.494c-0.005,0.281-0.012,0.665-3.479,1.285L43.544,49.75
				C41.743,50.073,39.797,50.29,38.7,50.29z M8.237,42.998l29.91,6.469c0.062,0.013,0.216,0.036,0.553,0.036
				c1.055,0,2.946-0.212,4.705-0.526l52.455-9.368c0.923-0.165,1.582-0.315,2.038-0.436l-29.906-6.469
				c-0.064-0.014-0.22-0.037-0.564-0.037c-1.061,0-2.946,0.21-4.694,0.522l-52.456,9.37C9.39,42.717,8.715,42.87,8.237,42.998z"/>
		</g>
		<g>
			<path fill="#808181" d="M42.098,44.239c-1.649,0.295-3.373,0.45-3.849,0.347l-21.94-4.744c-0.477-0.103,0.473-0.425,2.122-0.72
				l37.32-6.666c1.649-0.295,3.372-0.447,3.848-0.344l21.94,4.745c0.477,0.103-0.473,0.422-2.121,0.717L42.098,44.239z"/>
		</g>
		<g>
			<path fill="#FFFFFF" d="M42.476,42.11c-1.649,0.295-3.373,0.45-3.849,0.347l-21.94-4.745c-0.477-0.103,0.473-0.425,2.122-0.72
				l37.32-6.666c1.649-0.295,3.372-0.447,3.848-0.344l21.94,4.745c0.477,0.103-0.473,0.422-2.121,0.717L42.476,42.11z"/>
			<path fill="#B0B1B1" d="M39.08,42.882c-0.233,0-0.408-0.013-0.535-0.041l-21.94-4.745c-0.408-0.088-0.435-0.378-0.433-0.465
				c0.005-0.279,0.01-0.569,2.57-1.027l37.32-6.666c1.658-0.296,3.446-0.462,4-0.341l21.94,4.745
				c0.408,0.088,0.435,0.377,0.433,0.465c-0.006,0.278-0.01,0.566-2.569,1.024l-37.32,6.666
				C41.258,42.727,39.865,42.882,39.08,42.882z M17.907,37.573l20.804,4.499c0.032,0.007,0.131,0.023,0.369,0.023
				c0.744,0,2.081-0.149,3.329-0.373l37.32-6.666c0.384-0.068,0.702-0.133,0.965-0.193l-20.797-4.498
				c-0.032-0.007-0.134-0.024-0.376-0.024c-0.749,0-2.084,0.149-3.321,0.37l-37.32,6.666C18.492,37.448,18.171,37.514,17.907,37.573
				z"/>
		</g>
		<g>
			<path fill="#808181" d="M39.095,37.173c-1.144,0.204-2.339,0.312-2.67,0.241l-15.218-3.291c-0.331-0.072,0.329-0.295,1.472-0.499
				l25.887-4.624c1.144-0.204,2.339-0.31,2.67-0.238l15.218,3.291c0.331,0.072-0.328,0.293-1.472,0.498L39.095,37.173z"/>
		</g>
		<g>
			<path fill="#FFFFFF" d="M39.286,35.293c-1.144,0.204-2.339,0.312-2.67,0.241l-15.218-3.291c-0.331-0.072,0.329-0.295,1.472-0.499
				l25.887-4.624c1.144-0.204,2.339-0.31,2.67-0.238l15.218,3.291c0.331,0.072-0.328,0.293-1.472,0.498L39.286,35.293z"/>
			<path fill="#CBCACA" d="M36.931,35.949c-0.173,0-0.299-0.01-0.396-0.031l-15.218-3.291c-0.382-0.083-0.396-0.383-0.396-0.443
				c0.006-0.307,0.134-0.516,1.882-0.828l25.887-4.624c0.893-0.16,1.867-0.267,2.42-0.267c0.173,0,0.305,0.01,0.403,0.031
				l15.218,3.291c0.382,0.083,0.397,0.383,0.396,0.443c-0.006,0.307-0.134,0.515-1.882,0.826L39.357,35.68
				C38.457,35.841,37.482,35.949,36.931,35.949z M22.832,32.15L36.7,35.149c0.01,0.002,0.069,0.013,0.23,0.013
				c0.51,0,1.429-0.103,2.287-0.257l25.887-4.624c0.035-0.006,0.071-0.013,0.105-0.019l-13.865-2.998
				c-0.011-0.002-0.072-0.014-0.236-0.014c-0.512,0-1.429,0.102-2.282,0.255L22.939,32.13C22.903,32.137,22.867,32.144,22.832,32.15
				z"/>
		</g>
		<g>
			<g>
				<ellipse fill="#656565" cx="53.009" cy="14.762" rx="0.898" ry="3.351"/>
			</g>
			<g>
				
					<ellipse transform="matrix(0.5975 0.8019 -0.8019 0.5975 48.9709 -50.7995)" fill="#656565" cx="75.086" cy="23.38" rx="0.898" ry="3.351"/>
			</g>
			<g>
				
					<ellipse transform="matrix(0.4633 -0.8862 0.8862 0.4633 -5.0738 40.5318)" fill="#656565" cx="30.926" cy="24.455" rx="0.898" ry="3.351"/>
			</g>
		</g>
	</g>
	<g>
		<g>
			<g>
				<g>
					<path fill="#505050" d="M261.135,29.487c-0.726-0.194-1.404-0.243-2.033-0.243c-4.26,0-5.663,3.486-5.663,5.47v12.392h-7.94V23
						h7.649v3.486h0.097c1.21-2.42,3.582-4.163,6.535-4.163c0.63,0,1.306,0.048,1.695,0.194L261.135,29.487z"/>
				</g>
				<g>
					<path fill="#505050" d="M272.704,28.954v9.198c0,2.226,0.727,3.388,3.001,3.388c0.774,0,1.743-0.145,2.323-0.388l0.097,5.81
						c-1.065,0.386-2.904,0.726-4.598,0.726c-6.437,0-8.568-3.437-8.568-8.567V28.955h-3.872V23h3.825v-6.342h7.793V23h5.664v5.954
						H272.704z"/>
				</g>
				<g>
					<path fill="#505050" d="M296.278,30.117c-1.258-1.21-3.098-2.179-5.034-2.179c-1.5,0-3.001,0.532-3.001,1.936
						c0,1.355,1.307,1.743,4.405,2.421c3.679,0.822,7.696,2.662,7.696,7.358c0,6.1-5.373,8.229-10.31,8.229
						c-3.921,0-7.987-1.307-10.505-3.728l4.453-4.696c1.404,1.549,3.582,2.712,5.906,2.712c1.306,0,2.855-0.533,2.855-2.082
						c0-1.5-1.5-1.984-4.793-2.759c-3.34-0.774-7.019-2.469-7.019-7.019c0-5.76,5.422-8.084,10.021-8.084
						c3.582,0,7.31,1.162,9.681,3.389L296.278,30.117z"/>
				</g>
			</g>
		</g>
		<g>
			<g>
				<g>
					<path fill="#505050" d="M107.65,15.159V47.64h-0.968V13.27h0.726l26.285,32.966V13.27h0.968v34.369h-1.113L107.65,15.159z"/>
				</g>
				<g>
					<path fill="#505050" d="M153.299,48.125c-1.647,0-3.196-0.347-4.647-1.04c-1.452-0.693-2.72-1.629-3.8-2.808
						c-1.082-1.177-1.937-2.557-2.566-4.138s-0.944-3.245-0.944-4.986c0-1.775,0.314-3.444,0.944-5.01
						c0.63-1.566,1.493-2.945,2.59-4.139c1.097-1.193,2.372-2.137,3.824-2.832c1.452-0.693,2.986-1.04,4.599-1.04
						s3.146,0.347,4.598,1.04c1.451,0.694,2.719,1.638,3.8,2.832c1.081,1.194,1.944,2.574,2.59,4.139
						c0.644,1.566,0.967,3.235,0.967,5.01c0,1.742-0.314,3.405-0.944,4.986s-1.484,2.96-2.566,4.138
						c-1.082,1.179-2.347,2.114-3.799,2.808C156.493,47.776,154.944,48.125,153.299,48.125z M142.31,35.248
						c0,1.615,0.29,3.147,0.871,4.598c0.581,1.452,1.362,2.72,2.347,3.8c0.984,1.082,2.138,1.937,3.461,2.566
						c1.323,0.63,2.743,0.944,4.261,0.944c1.483,0,2.896-0.323,4.235-0.968c1.339-0.644,2.517-1.516,3.533-2.614
						c1.017-1.096,1.816-2.371,2.396-3.824c0.581-1.453,0.872-3.002,0.872-4.647c0-1.614-0.291-3.147-0.872-4.598
						c-0.581-1.452-1.372-2.727-2.371-3.824c-1.001-1.097-2.171-1.968-3.51-2.614c-1.34-0.646-2.752-0.968-4.235-0.968
						c-1.484,0-2.897,0.323-4.236,0.968c-1.339,0.646-2.509,1.525-3.509,2.638c-1,1.113-1.792,2.405-2.372,3.872
						C142.602,32.044,142.31,33.602,142.31,35.248z"/>
				</g>
				<g>
					<path fill="#505050" d="M190.039,47.64l-10.698-14.377l-6.826,6.196v8.181h-0.968V12.303h0.968v25.849l17.136-15.538h1.307
						l-10.892,9.972l11.133,15.055H190.039z"/>
				</g>
				<g>
					<path fill="#505050" d="M204.949,48.125c-1.647,0-3.196-0.347-4.647-1.04c-1.452-0.693-2.72-1.629-3.8-2.808
						c-1.082-1.177-1.937-2.557-2.566-4.138s-0.944-3.245-0.944-4.986c0-1.775,0.314-3.444,0.944-5.01
						c0.63-1.566,1.493-2.945,2.59-4.139c1.097-1.193,2.372-2.137,3.824-2.832c1.452-0.693,2.986-1.04,4.599-1.04
						s3.146,0.347,4.598,1.04c1.451,0.694,2.719,1.638,3.8,2.832c1.081,1.194,1.944,2.574,2.59,4.139
						c0.644,1.566,0.967,3.235,0.967,5.01c0,1.742-0.314,3.405-0.944,4.986s-1.484,2.96-2.566,4.138
						c-1.082,1.179-2.347,2.114-3.799,2.808C208.143,47.776,206.594,48.125,204.949,48.125z M193.961,35.248
						c0,1.615,0.29,3.147,0.871,4.598c0.581,1.452,1.362,2.72,2.347,3.8c0.984,1.082,2.138,1.937,3.461,2.566
						c1.323,0.63,2.743,0.944,4.261,0.944c1.483,0,2.896-0.323,4.235-0.968c1.339-0.644,2.517-1.516,3.533-2.614
						c1.017-1.096,1.816-2.371,2.396-3.824s0.872-3.002,0.872-4.647c0-1.614-0.291-3.147-0.872-4.598
						c-0.581-1.452-1.372-2.727-2.371-3.824c-1.001-1.097-2.171-1.968-3.51-2.614c-1.34-0.646-2.752-0.968-4.235-0.968
						c-1.484,0-2.897,0.323-4.236,0.968c-1.339,0.646-2.509,1.525-3.509,2.638c-1,1.113-1.792,2.405-2.372,3.872
						C194.254,32.044,193.961,33.602,193.961,35.248z"/>
				</g>
			</g>
		</g>
		<g>
			<g>
				
					<rect x="220.897" y="22.01" transform="matrix(0.9138 0.4062 -0.4062 0.9138 33.7503 -88.1832)" fill="#505050" width="7.432" height="26.811"/>
			</g>
			<g>
				<path fill="#505050" d="M242.382,51.387c-0.265,0-0.533-0.016-0.805-0.05c-4.184-0.523-6.525-4.843-8.565-9.221
					c-2.111-4.533-3.943-9.208-5.716-13.731c-1.28-3.269-2.605-6.65-4.008-9.898l6.825-2.945c1.451,3.365,2.801,6.806,4.104,10.132
					c1.731,4.416,3.521,8.983,5.534,13.304c1.48,3.178,2.334,4.382,2.771,4.838c0.468-0.288,1.487-1.089,3.287-3.293l5.757,4.699
					C249.051,48.303,246.017,51.387,242.382,51.387z"/>
			</g>
		</g>
	</g>
</g>
</svg>
