<?xml version="1.0" encoding="utf-8"?>
<!-- Generator: Adobe Illustrator 21.0.2, SVG Export Plug-In . SVG Version: 6.00 Build 0)  -->
<svg version="1.1" id="Layer_1" xmlns="http://www.w3.org/2000/svg" xmlns:xlink="http://www.w3.org/1999/xlink" x="0px" y="0px"
	 viewBox="0 0 216 215" style="enable-background:new 0 0 216 215;" xml:space="preserve">
<style type="text/css">
	.st0{fill:#ED3726;}
	.st1{fill:#FFD201;}
</style>
<g>
	<path class="st0" d="M10.9,84.4C24.2,30.5,78.7-2.4,132.6,11c53.9,13.3,86.7,67.8,73.4,121.7c-13.3,53.9-67.8,86.7-121.7,73.4
		C30.4,192.7-2.4,138.2,10.9,84.4"/>
	<path class="st0" d="M13.8,74.7h189.3c-11-30.6-36.6-55.4-70.5-63.8C82-1.6,30.9,26.6,13.8,74.7"/>
	<path class="st1" d="M206.8,129.2c0-0.2,0.1-0.4,0.1-0.6c0.1-0.4,0.1-0.7,0.2-1.1c0-0.2,0.1-0.4,0.1-0.6c0.1-0.4,0.1-0.8,0.2-1.2
		c0-0.2,0.1-0.4,0.1-0.6c0.1-0.5,0.2-1,0.2-1.4c0-0.1,0-0.2,0-0.3c0.1-0.6,0.2-1.2,0.2-1.7c0-0.2,0-0.3,0.1-0.5
		c0.1-0.4,0.1-0.9,0.2-1.3c0-0.2,0-0.4,0.1-0.6c0-0.4,0.1-0.8,0.1-1.1c0-0.2,0-0.4,0.1-0.6c0-0.4,0.1-0.8,0.1-1.2c0-0.2,0-0.4,0-0.6
		c0-0.4,0.1-0.9,0.1-1.3c0-0.1,0-0.3,0-0.4c0-0.6,0.1-1.2,0.1-1.7c0-0.1,0-0.2,0-0.3c0-0.5,0-1,0-1.4c0-0.2,0-0.4,0-0.5
		c0-0.4,0-0.8,0-1.2c0-0.2,0-0.4,0-0.6c0-0.4,0-0.8,0-1.2c0-0.2,0-0.4,0-0.6c0-0.4,0-0.8,0-1.3c0-0.1,0-0.3,0-0.4
		c0-1.1-0.1-2.3-0.2-3.4c0-0.2,0-0.3,0-0.5c0-0.4-0.1-0.8-0.1-1.3c0-0.2,0-0.4-0.1-0.5c0-0.4-0.1-0.8-0.1-1.2c0-0.2,0-0.4-0.1-0.5
		c0-0.4-0.1-0.8-0.2-1.3c0-0.1,0-0.3-0.1-0.4c-0.1-1.1-0.3-2.3-0.5-3.4c0-0.1,0-0.2-0.1-0.3c-0.1-0.5-0.2-0.9-0.2-1.4
		c0-0.2-0.1-0.3-0.1-0.5c-0.1-0.4-0.2-0.8-0.2-1.2c0-0.2-0.1-0.3-0.1-0.5c-0.1-0.4-0.2-0.8-0.3-1.2c0-0.1-0.1-0.3-0.1-0.4
		c-0.1-0.5-0.2-1-0.4-1.5l0-0.1c-0.1-0.5-0.3-1.1-0.4-1.6h0c-0.8-2.9-1.7-5.8-2.7-8.7H13.8c-1.1,3.1-2.1,6.3-2.9,9.6
		c-3.3,13.5-3.8,27-1.7,39.9c0,0.1,0,0.1,0,0.2c0.1,0.5,0.2,0.9,0.2,1.4c0,0.1,0,0.2,0.1,0.3c0.1,0.4,0.2,0.9,0.2,1.3
		c0,0.1,0.1,0.3,0.1,0.4c0.1,0.4,0.2,0.8,0.3,1.2c0,0.2,0.1,0.3,0.1,0.5c0.1,0.4,0.2,0.8,0.3,1.2c0,0.2,0.1,0.4,0.1,0.5
		c0.1,0.4,0.2,0.7,0.3,1.1c0.1,0.3,0.1,0.6,0.2,0.8c0.1,0.4,0.2,0.8,0.3,1.2c0.1,0.4,0.2,0.8,0.3,1.2c0.1,0.2,0.1,0.4,0.2,0.5
		c0.1,0.4,0.2,0.8,0.3,1.1c0.1,0.2,0.1,0.4,0.2,0.5c0.1,0.4,0.2,0.8,0.4,1.1c0.1,0.2,0.1,0.4,0.2,0.5c0.1,0.4,0.3,0.8,0.4,1.1
		c0.1,0.2,0.1,0.3,0.2,0.5c0.1,0.4,0.3,0.8,0.4,1.1c0,0.1,0.1,0.2,0.1,0.3h0c0.1,0.2,0.2,0.5,0.3,0.7h188.5c0.1-0.2,0.2-0.5,0.2-0.7
		h0c0.2-0.6,0.4-1.2,0.6-1.8c0-0.1,0-0.1,0.1-0.2c0.3-0.8,0.5-1.6,0.8-2.3c0-0.1,0.1-0.2,0.1-0.3c0.2-0.7,0.4-1.5,0.6-2.2
		c0-0.2,0.1-0.3,0.1-0.5c0.2-0.9,0.5-1.8,0.7-2.7c0.1-0.6,0.3-1.2,0.4-1.7c0-0.2,0.1-0.4,0.1-0.6
		C206.6,129.9,206.7,129.6,206.8,129.2"/>
</g>
</svg>
