<?xml version="1.0" encoding="utf-8"?>
<!-- Generator: Adobe Illustrator 17.0.0, SVG Export Plug-In . SVG Version: 6.00 Build 0)  -->
<!DOCTYPE svg PUBLIC "-//W3C//DTD SVG 1.1//EN" "http://www.w3.org/Graphics/SVG/1.1/DTD/svg11.dtd">
<svg version="1.1" id="Layer_1" xmlns="http://www.w3.org/2000/svg" xmlns:xlink="http://www.w3.org/1999/xlink" x="0px" y="0px"
	 width="479.047px" height="733.721px" viewBox="0 0 479.047 733.721" enable-background="new 0 0 479.047 733.721"
	 xml:space="preserve">
<g>
	<g opacity="0.71">
		<path fill="#CF992A" d="M51.792,672.618h1.078c5.366,0,9.757-4.391,9.757-9.757l0-601.046c0-5.366-4.391-9.757-9.757-9.757h-1.078
			c-5.366,0-9.757,4.391-9.757,9.757l0,601.046C42.035,668.228,46.426,672.618,51.792,672.618z"/>
		<path fill="#CF992A" d="M427.003,634.134h2.112c5.366,0,9.757-4.391,9.757-9.757V130.38c0-5.366-4.391-9.757-9.757-9.757h-2.112
			c-5.366,0-9.757,4.391-9.757,9.757v493.997C417.246,629.744,421.637,634.134,427.003,634.134z"/>
		<path fill="#CF992A" d="M191.798,690.405h2.112c5.366,0,9.757-4.391,9.757-9.757l0-623.846c0-5.366-4.391-9.757-9.757-9.757
			h-2.112c-5.366,0-9.757,4.391-9.757,9.757l0,623.846C182.041,686.015,186.432,690.405,191.798,690.405z"/>
		<path fill="#CF992A" d="M98.833,633.595h1.078c5.366,0,9.757-4.391,9.757-9.757l0-498.312c0-5.366-4.391-9.757-9.757-9.757h-1.078
			c-5.366,0-9.757,4.391-9.757,9.757l0,498.312C89.076,629.204,93.467,633.595,98.833,633.595z"/>
		<path fill="#CF992A" d="M332.921,622.074h2.112c5.366,0,9.757-4.391,9.757-9.757V154.491c0-5.366-4.391-9.757-9.757-9.757h-2.112
			c-5.366,0-9.757,4.391-9.757,9.757v457.826C323.164,617.683,327.555,622.074,332.921,622.074z"/>
		<path fill="#CF992A" d="M238.839,632.529h2.112c5.366,0,9.757-4.391,9.757-9.757V149.128c0-5.366-4.391-9.757-9.757-9.757h-2.112
			c-5.366,0-9.757,4.391-9.757,9.757v473.643C229.082,628.138,233.473,632.529,238.839,632.529z"/>
		<path fill="#CF992A" d="M145.874,656.338h1.078c5.366,0,9.757-4.391,9.757-9.757V83.35c0-5.366-4.391-9.757-9.757-9.757h-1.078
			c-5.366,0-9.757,4.391-9.757,9.757v563.23C136.117,651.947,140.508,656.338,145.874,656.338z"/>
		<path fill="#CF992A" d="M285.88,655.011h2.112c5.366,0,9.757-4.391,9.757-9.757V105.157c0-5.366-4.391-9.757-9.757-9.757h-2.112
			c-5.366,0-9.757,4.391-9.757,9.757v540.097C276.123,650.62,280.514,655.011,285.88,655.011z"/>
		<path fill="#CF992A" d="M379.962,683.783h2.112c5.366,0,9.757-4.391,9.757-9.757V101.219c0-5.366-4.391-9.757-9.757-9.757h-2.112
			c-5.366,0-9.757,4.391-9.757,9.757v572.807C370.205,679.392,374.596,683.783,379.962,683.783z"/>
	</g>
	<g>
		<g>
			<g>
				<g>
					<path fill="#995A25" d="M46.146,442.304c0,0,31.472,38.181,82.645,5.968c45.16-28.428,24.213-132.611,26.13-126.183
						c0,0-9.705-19.814-21.387-11.465c0,0-55.293,30.633-104.718,18.824C28.816,329.447-2.798,387.356,46.146,442.304z"/>
					<g>
						
							<ellipse transform="matrix(0.9995 0.032 -0.032 0.9995 11.6089 -2.6075)" fill="#FAE9D4" cx="87.383" cy="361.895" rx="63.749" ry="73.507"/>
						<path fill="#FAE9D4" d="M160.73,361.965c-0.775,3.43-4.055,11.467-7.325,10.727s-5.292-9.974-4.517-13.404
							c0.775-3.43,4.055-5.612,7.325-4.873C159.483,355.155,161.505,358.535,160.73,361.965z"/>
						<path fill="#FAE9D4" d="M28.144,360.598c-0.775,3.43-4.055,10.166-7.325,9.426c-3.27-0.739-5.292-8.673-4.517-12.103
							c0.775-3.43,4.055-5.612,7.325-4.873S28.919,357.167,28.144,360.598z"/>
					</g>
					<path fill="#FAE9D4" d="M89.195,457.458L89.195,457.458c-4.64,0-8.436-3.796-8.436-8.436v-13.298
						c0-4.64,3.796-8.436,8.436-8.436h0c4.64,0,8.436,3.796,8.436,8.436v13.298C97.631,453.662,93.835,457.458,89.195,457.458z"/>
					<path fill="#995A25" d="M140.855,312.888c0,0-39.419,36.833-105.347,26.875c-3.428-0.518-9.947-1.794-12.818-3.739
						c-6.383-4.325-19.509-12.216-14.59-14.229c46.966-19.212,64.675-65.872,106.569-40.817
						C142.949,297.891,140.855,312.888,140.855,312.888z"/>
					<path fill="#995A25" d="M23.739,353.048c0,0,3.224,1.908,5.958,6.667c1.644,2.86,9.324-31.901,20.166-39.273
						C49.863,320.441,25.804,315.834,23.739,353.048z"/>
					<path fill="#995A25" d="M157.312,354.604c0,0-7.597-1.7-8.567,7.29c-0.237,2.195-14.884-9.882-19.955-22.997
						c-4.195-10.851,2.014-25.965-4.93-31.489C123.861,307.408,162.845,309.345,157.312,354.604z"/>
					<g>
						<path fill="#171717" d="M73.614,349.919H53.323c-5.125,0-9.28,4.155-9.28,9.28v7.967c0,5.125,4.154,9.279,9.279,9.28
							c6.367,0,13.82,0.79,19.883-0.213c7.844-1.297,9.688-9.737,9.688-17.034C82.893,354.073,78.739,349.919,73.614,349.919z
							 M81.658,360.88c0,9.197-5.425,14.297-13.321,14.297l-15.243-0.488c-4.764,0.297-7.815-3.667-7.815-8.791v-5.431
							c0-5.125,2.69-9.28,7.815-9.28h20.749c5.125,0,7.815,4.155,7.815,9.28V360.88z"/>
						<path fill="#171717" d="M102.711,349.919h20.776c5.247,0,9.501,4.155,9.501,9.28v7.967c0,5.125-4.254,9.279-9.501,9.28
							c-6.519,0-14.151,0.79-20.358-0.213c-8.032-1.297-9.919-9.737-9.919-17.034C93.209,354.073,97.463,349.919,102.711,349.919z
							 M94.474,360.88c0,9.197,5.554,14.297,13.639,14.297l15.608-0.488c4.877,0.297,8.002-3.667,8.002-8.791v-5.431
							c0-5.125-2.755-9.28-8.002-9.28h-21.245c-5.247,0-8.002,4.155-8.002,9.28V360.88z"/>
						<path fill="#171717" d="M82.042,361.151c-1.379,0.948,4.807-6.863,12.144,0C94.186,361.151,87.608,357.324,82.042,361.151z"/>
					</g>
					<ellipse opacity="0.44" fill="#EAACA0" cx="125.008" cy="387.356" rx="12.222" ry="7.994"/>
					<ellipse opacity="0.44" fill="#EAACA0" cx="47.911" cy="387.356" rx="12.222" ry="7.994"/>
				</g>
				<circle fill="#F2DEC9" cx="22.77" cy="359.715" r="2.18"/>
				<circle fill="#F2DEC9" cx="154.809" cy="360.627" r="2.18"/>
				<circle fill="#DF9026" cx="21.308" cy="366.225" r="2.5"/>
				<circle fill="#DF9026" cx="154.158" cy="368.725" r="2.5"/>
			</g>
			<path fill="#F2DDC8" d="M34.625,403.721c0,0,46.134,60.265,104.858,0C139.483,403.721,91.495,472.983,34.625,403.721z"/>
		</g>
		<g>
			<g>
				<g>
					<g>
						
							<ellipse transform="matrix(0.9999 0.0163 -0.0163 0.9999 5.7964 -3.9572)" fill="#B98F6C" cx="246.166" cy="354.352" rx="63.749" ry="73.507"/>
						<ellipse fill="#B98F6C" cx="313.268" cy="354.572" rx="6.071" ry="6.368"/>
						<ellipse fill="#B98F6C" cx="181.124" cy="352.665" rx="6.071" ry="6.368"/>
					</g>
					<path opacity="0.19" fill="#3B291D" d="M182.807,346.55l4.388,1.654c0,0,5.264-20.4,11.84-31.142
						c2.396-3.914,7.373-5.349,11.544-3.434c10.922,5.016,37.278,13.735,68.046-0.214c3.713-1.684,8.076-0.743,10.823,2.27
						c5.109,5.601,14.076,16.51,15.6,35.123l4.743-2.099c0,0,0.128-25.751-18.384-46.258c-9.541-10.57-23.124-21.594-44.045-21.594
						c-10.06,0-28.491,1.987-43.912,19.091C194.119,310.294,185.273,324.505,182.807,346.55z"/>
					<g>
						<path fill="#1E1E1E" d="M236.57,342.837h-25.175c-2.807,0-5.103,1.406-5.103,3.126v10.418c0,1.719,2.296,3.126,5.103,3.126
							h25.175c2.807,0,5.103-1.406,5.103-3.126v-10.418C241.673,344.244,239.377,342.837,236.57,342.837z M240.082,354.297
							c0,1.719-3.597,3.542-6.404,3.542h-19.391c-2.807,0-6.404-1.823-6.404-3.542v-6.25c0-1.719,3.597-3.542,6.404-3.542h19.391
							c2.807,0,6.404,1.823,6.404,3.542V354.297z"/>
						<path fill="#1E1E1E" d="M282.997,342.837h-25.175c-2.807,0-5.103,1.406-5.103,3.126v10.418c0,1.719,2.296,3.126,5.103,3.126
							h25.175c2.807,0,5.103-1.406,5.103-3.126v-10.418C288.1,344.244,285.803,342.837,282.997,342.837z M286.509,354.297
							c0,1.719-3.597,3.542-6.404,3.542h-19.391c-2.807,0-6.404-1.823-6.404-3.542v-6.25c0-1.719,3.597-3.542,6.404-3.542h19.391
							c2.807,0,6.404,1.823,6.404,3.542V354.297z"/>
						<path fill="#1E1E1E" d="M241.101,352.706c-1.407,1.626,4.903-11.764,12.386,0
							C253.487,352.706,246.778,346.145,241.101,352.706z"/>
					</g>
					<path fill="#B98F6C" d="M244.275,450.366L244.275,450.366c-4.64,0-8.436-3.796-8.436-8.436v-13.298
						c0-4.64,3.796-8.436,8.436-8.436h0c4.64,0,8.436,3.796,8.436,8.436v13.298C252.711,446.57,248.915,450.366,244.275,450.366z"/>
				</g>
				<circle fill="#B2886A" cx="313.268" cy="355.083" r="2.18"/>
				<circle fill="#B2886A" cx="181.124" cy="352.903" r="2.18"/>
			</g>
			<path opacity="0.1" fill="#3B291D" d="M193.798,396.101c0,0,46.134,60.265,104.858,0
				C298.655,396.101,250.668,465.364,193.798,396.101z"/>
		</g>
		<g>
			<path fill="#E1BB9A" d="M416.602,437.636L416.602,437.636c-4.64,0-8.436-3.796-8.436-8.436v-13.298
				c0-4.64,3.796-8.436,8.436-8.436h0c4.64,0,8.436,3.796,8.436,8.436v13.298C425.038,433.84,421.242,437.636,416.602,437.636z"/>
			<g>
				<g>
					<g>
						<path fill="#1C1C1C" d="M339.613,381.5c3.74,0.681,3.538,8.766,3.997,11.444c2.654,15.483,4.844,31.336,2.893,47.037
							c-0.977,7.862-3.004,15.576-6.136,22.858c-2.116,4.919-3.195,5.935,2.243,8.317c19.913,8.722,44.562,2.576,61.801-9.358
							c20.459-14.163,28.569-39.079,33.581-62.393c0.006-0.026,0.011-0.053,0.016-0.079
							C438.007,399.326,339.687,381.513,339.613,381.5z"/>
						<path fill="#1C1C1C" d="M463.728,333.266c7.876,2.305,7.711,14.659,8.036,21.126c0.665,13.238-0.236,26.82-4.054,39.562
							c-3.165,10.565-11.17,18.797-16.724,28.163c-4.15,6.998-7.51,15.518-6.999,24.027c0.258,4.299,1.482,8.464,3.581,12.225
							c2.771,4.963,5.021,7.224-2.715,7.303c-2.793,0.028-5.596-0.378-8.27-1.184c-4.901-1.477-9.2-4.14-12.141-8.367
							c-6.032-8.668-5.893-20.598-1.731-30.03c2.562-5.807,6.638-10.584,9.595-16.123c2.477-4.639,1.45-8.027,0.397-13.197
							c-0.747-3.666-0.213-4.519,0.814-8.035c2.245-7.684,4.702-15.313,7.483-22.82c3.327-8.983,6.131-18.656,11.899-26.458
							c2.21-2.99,5.721-7.126,9.963-6.392C463.162,333.117,463.449,333.184,463.728,333.266z"/>
						<g>
							
								<ellipse transform="matrix(0.9999 -0.0139 0.0139 0.9999 -4.6522 5.5974)" fill="#E1BB9A" cx="401.784" cy="338.669" rx="63.749" ry="73.507"/>
							
								<ellipse transform="matrix(0.9754 0.2204 -0.2204 0.9754 84.8722 -94.8971)" fill="#E1BB9A" cx="467.8" cy="332.98" rx="6.071" ry="6.368"/>
							
								<ellipse transform="matrix(0.9754 0.2204 -0.2204 0.9754 81.2299 -66.4107)" fill="#E1BB9A" cx="338.292" cy="330.897" rx="6.071" ry="6.368"/>
						</g>
						<path fill="#191919" d="M357.504,311.294c0,0,3.819,48.754-8.169,69.991c0,0,13.211,19.894,29.721,26.257
							c0,0-38.982,3.436-47.502-52.833c0,0-2.56-34,8.265-54.493L357.504,311.294z"/>
						<path fill="#1C1C1C" d="M445.975,280.877c-0.008,0.025-13.599,65.157-118.158,48.682
							c-1.346-17.608,8.187-32.859,16.749-45.453c19.314-28.413,57.329-35.633,86.439-20.23
							C434.031,265.477,447.433,276.407,445.975,280.877z"/>
						<path fill="#1C1C1C" d="M426.14,300.216c0,0,29.792,10.705,33.826,32.763c0,0,1.901-6.499,5.569-6.355
							c0,0,2.349-28.291-19.56-45.747C424.067,263.422,426.14,300.216,426.14,300.216z"/>
					</g>
					<g>
						<g>
							<path fill="#7F5422" d="M381.044,330.371c-10.554,0.207-19.037,4.111-18.946,8.719c0.09,4.608,8.72,8.176,19.274,7.969
								c10.554-0.207,19.037-4.111,18.946-8.719S391.599,330.164,381.044,330.371z M381.355,346.188
								c-9.452,0.186-17.181-3.01-17.262-7.137s7.516-7.624,16.968-7.809c9.453-0.186,17.181,3.01,17.262,7.137
								S390.808,346.003,381.355,346.188z"/>
							<path fill="#7F5422" d="M427.482,329.459c-10.554,0.207-19.037,4.111-18.946,8.719c0.091,4.608,8.72,8.176,19.274,7.969
								c10.554-0.207,19.037-4.111,18.946-8.719C446.666,332.82,438.037,329.252,427.482,329.459z M427.793,345.276
								c-9.452,0.186-17.181-3.01-17.262-7.137s7.516-7.624,16.968-7.809c9.453-0.186,17.181,3.01,17.262,7.137
								S437.246,345.091,427.793,345.276z"/>
							<path fill="#7F5422" d="M399.17,338.447c0,0,5.684-4.3,10.383-0.204L399.17,338.447z"/>
						</g>
						<g>
							<path fill="#AA6D29" d="M382.359,330.013c-10.554,0.207-19.037,4.111-18.946,8.719c0.091,4.608,8.72,8.176,19.274,7.969
								c10.554-0.207,19.037-4.111,18.946-8.719C401.542,333.374,392.913,329.806,382.359,330.013z M382.669,345.83
								c-9.452,0.186-17.181-3.01-17.262-7.137s7.516-7.623,16.968-7.809c9.453-0.186,17.181,3.01,17.262,7.137
								S392.122,345.645,382.669,345.83z"/>
							<path fill="#AA6D29" d="M428.797,329.101c-10.554,0.207-19.037,4.111-18.946,8.719c0.091,4.608,8.72,8.176,19.274,7.969
								c10.554-0.207,19.037-4.111,18.946-8.719C447.98,332.462,439.351,328.894,428.797,329.101z M429.107,344.918
								c-9.452,0.186-17.181-3.01-17.262-7.137s7.516-7.624,16.969-7.809c9.452-0.186,17.181,3.01,17.262,7.137
								S438.56,344.733,429.107,344.918z"/>
							<path fill="#AA6D29" d="M399.127,339.977c-1.375,1.626,4.792-11.764,12.107,0
								C411.234,339.977,404.676,333.416,399.127,339.977z"/>
						</g>
					</g>
					<g>
						<path fill="#1C1C1C" d="M463.045,327.511c0,0-0.151,0.165-0.416,0.454c-0.15,0.151-0.262,0.309-0.395,0.489
							c-0.142,0.172-0.294,0.393-0.445,0.665c-0.169,0.255-0.308,0.557-0.459,0.878c-0.158,0.318-0.267,0.679-0.401,1.047
							c-0.225,0.75-0.377,1.583-0.42,2.432c0.009,0.421-0.014,0.853,0.052,1.266c0.03,0.422,0.132,0.822,0.221,1.217
							c0.124,0.379,0.23,0.763,0.399,1.092c0.158,0.337,0.318,0.654,0.515,0.916c0.17,0.283,0.366,0.511,0.551,0.707
							c0.173,0.207,0.338,0.375,0.494,0.491c0.299,0.252,0.47,0.395,0.47,0.395s-0.19-0.119-0.522-0.327
							c-0.175-0.096-0.364-0.241-0.57-0.427c-0.217-0.174-0.453-0.381-0.67-0.648c-0.244-0.246-0.457-0.552-0.675-0.885
							c-0.229-0.326-0.398-0.713-0.589-1.105c-0.155-0.406-0.326-0.829-0.424-1.279c-0.135-0.444-0.179-0.911-0.252-1.378
							c-0.026-0.468-0.072-0.942-0.039-1.407c-0.002-0.469,0.073-0.922,0.126-1.368c0.09-0.437,0.161-0.869,0.289-1.263
							c0.121-0.396,0.237-0.774,0.393-1.107c0.13-0.337,0.282-0.649,0.449-0.927c0.155-0.282,0.295-0.525,0.404-0.669
							c0.222-0.323,0.348-0.507,0.348-0.507L463.045,327.511z"/>
					</g>
					<ellipse opacity="0.44" fill="#EAACA0" cx="444.758" cy="355.483" rx="8.703" ry="5.826"/>
					<ellipse opacity="0.44" fill="#EAACA0" cx="368.262" cy="355.483" rx="8.907" ry="5.826"/>
				</g>
				<circle fill="#D8B092" cx="467.8" cy="333.224" r="2.18"/>
				<circle fill="#C9C9C9" cx="467.149" cy="339.081" r="2.5"/>
			</g>
			<path opacity="0.07" fill="#3B291D" d="M349.204,379.676c0,0,46.134,60.265,104.858,0
				C454.062,379.676,406.075,448.939,349.204,379.676z"/>
		</g>
	</g>
</g>
</svg>
