<?xml version="1.0" encoding="utf-8"?>
<!-- Generator: Adobe Illustrator 21.0.2, SVG Export Plug-In . SVG Version: 6.00 Build 0)  -->
<svg version="1.1" id="Layer_1" xmlns="http://www.w3.org/2000/svg" xmlns:xlink="http://www.w3.org/1999/xlink" x="0px" y="0px"
	 viewBox="0 0 216 215" style="enable-background:new 0 0 216 215;" xml:space="preserve">
<style type="text/css">
	.st0{fill:#F1F1F2;}
	.st1{fill:#ED3726;}
	.st2{fill:#223C72;}
</style>
<g>
	<path class="st0" d="M14.8,86.4C27.5,34.9,79.6,3.5,131,16.3C182.5,29,213.9,81,201.2,132.5c-12.7,51.5-64.8,82.9-116.3,70.1
		C33.4,189.9,2,137.9,14.8,86.4"/>
	<path class="st1" d="M196.8,72.9h-74.4v14.7h79.1C200.3,82.6,198.7,77.7,196.8,72.9 M177.8,43.5h-55.4v14.7h66.8
		C185.9,53,182.1,48.1,177.8,43.5 M38.6,175.9h138.7c4.3-4.5,8.2-9.4,11.6-14.7H27.1C30.4,166.4,34.3,171.4,38.6,175.9 M131,16.3
		c-2.9-0.7-5.8-1.3-8.6-1.7v14.3h37.8C151.4,23.2,141.7,18.9,131,16.3 M203.7,102.3h-81.4v14.7h81.3
		C204.1,112.1,204.1,107.2,203.7,102.3 M19.4,146.5h177.2c1.9-4.5,3.4-9.1,4.6-14c0.1-0.3,0.1-0.5,0.2-0.8H14.6
		C15.8,136.8,17.4,141.7,19.4,146.5 M84.9,202.7c5.7,1.4,11.4,2.3,17,2.6h12.2c16.3-1,31.8-6.2,45.2-14.7H56.6
		C65.1,196,74.6,200.1,84.9,202.7"/>
	<path class="st2" d="M115.1,111.7l-2.1-1.5l-2.1,1.5l0.8-2.4l-2.1-1.5h2.6l0.8-2.4l0.8,2.4h2.6l-2.1,1.5L115.1,111.7z M104.9,34.3
		l0.8,2.5l-2.1-1.5l-2.1,1.5l0.8-2.5l-2.1-1.5h2.6l0.8-2.4l0.8,2.4h2.6L104.9,34.3z M104.9,56.4l0.8,2.4l-2.1-1.5l-2.1,1.5l0.8-2.4
		l-2.1-1.5h2.6l0.8-2.4l0.8,2.4h2.6L104.9,56.4z M104.7,78.1l0.8,2.4l-2.1-1.5l-2.1,1.5l0.8-2.4l-2.1-1.5h2.6l0.8-2.4l0.8,2.4h2.6
		L104.7,78.1z M105.3,101.9l-2.1-1.5l-2.1,1.5l0.8-2.4L99.9,98h2.6l0.8-2.4L104,98h2.6l-2.1,1.5L105.3,101.9z M95.1,45l0.8,2.4
		l-2.1-1.5l-2.1,1.5l0.8-2.4l-2.1-1.5H93l0.8-2.4l0.8,2.4h2.6L95.1,45z M95.1,66.4l0.8,2.4l-2.1-1.5l-2.1,1.5l0.8-2.4l-2.1-1.5H93
		l0.8-2.4l0.8,2.4h2.6L95.1,66.4z M95.1,88.3l0.8,2.4l-2.1-1.5l-2.1,1.5l0.8-2.4l-2.1-1.5H93l0.8-2.5l0.8,2.5h2.6L95.1,88.3z
		 M95.9,111.7l-2.1-1.5l-2.1,1.5l0.8-2.4l-2.1-1.5H93l0.8-2.4l0.8,2.4h2.6l-2.1,1.5L95.9,111.7z M85.7,34.3l0.8,2.5l-2.1-1.5
		l-2.1,1.5l0.8-2.5l-2.1-1.5h2.6l0.8-2.4l0.8,2.4h2.6L85.7,34.3z M85.7,56.4l0.8,2.4l-2.1-1.5l-2.1,1.5l0.8-2.4l-2.1-1.5h2.6
		l0.8-2.4l0.8,2.4h2.6L85.7,56.4z M85.5,78.1l0.8,2.4L84.2,79l-2.1,1.5l0.8-2.4l-2.1-1.5h2.6l0.8-2.4l0.8,2.4h2.6L85.5,78.1z
		 M86.1,101.9l-2.1-1.5l-2.1,1.5l0.8-2.4L80.7,98h2.6l0.8-2.4l0.8,2.4h2.6l-2.1,1.5L86.1,101.9z M75.9,23.6l0.8,2.4l-2.1-1.5
		L72.6,26l0.8-2.4l-2.1-1.5h2.6l0.8-2.4l0.8,2.4H78L75.9,23.6z M75.9,45l0.8,2.4l-2.1-1.5l-2.1,1.5l0.8-2.4l-2.1-1.5h2.6l0.8-2.4
		l0.8,2.4H78L75.9,45z M75.9,66.4l0.8,2.4l-2.1-1.5l-2.1,1.5l0.8-2.4l-2.1-1.5h2.6l0.8-2.4l0.8,2.4H78L75.9,66.4z M75.9,88.3
		l0.8,2.4l-2.1-1.5l-2.1,1.5l0.8-2.4l-2.1-1.5h2.6l0.8-2.5l0.8,2.5H78L75.9,88.3z M76.7,111.7l-2.1-1.5l-2.1,1.5l0.8-2.4l-2.1-1.5
		h2.6l0.8-2.4l0.8,2.4H78l-2.1,1.5L76.7,111.7z M66.5,33.5l0.8,2.4l-2.1-1.5L63.1,36l0.8-2.4L61.9,32h2.6l0.8-2.4L66,32h2.6
		L66.5,33.5z M66.5,55.6l0.8,2.4l-2.1-1.5l-2.1,1.5l0.8-2.4l-2.1-1.5h2.6l0.8-2.4l0.8,2.4h2.6L66.5,55.6z M66.3,77.3l0.8,2.4
		L65,78.2L63,79.7l0.8-2.4l-2.1-1.5h2.6l0.8-2.4l0.8,2.4h2.6L66.3,77.3z M66.9,101.1l-2.1-1.5l-2.1,1.5l0.8-2.5l-2.1-1.5H64l0.8-2.4
		l0.8,2.4h2.6l-2.1,1.5L66.9,101.1z M56.7,45l0.8,2.4l-2.1-1.5l-2.1,1.5l0.8-2.4l-2.1-1.5h2.6l0.8-2.4l0.8,2.4h2.6L56.7,45z
		 M56.7,66.4l0.8,2.4l-2.1-1.5l-2.1,1.5l0.8-2.4l-2.1-1.5h2.6l0.8-2.4l0.8,2.4h2.6L56.7,66.4z M56.7,88.3l0.8,2.4l-2.1-1.5l-2.1,1.5
		l0.8-2.4l-2.1-1.5h2.6l0.8-2.5l0.8,2.5h2.6L56.7,88.3z M57.5,111.7l-2.1-1.5l-2.1,1.5l0.8-2.4l-2.1-1.5h2.6l0.8-2.4l0.8,2.4h2.6
		l-2.1,1.5L57.5,111.7z M47.3,55.4l0.8,2.4L46,56.3L44,57.9l0.8-2.4l-2.1-1.5h2.6l0.8-2.4l0.8,2.4h2.6L47.3,55.4z M47.1,77.1
		l0.8,2.4L45.8,78l-2.1,1.5l0.8-2.4l-2.1-1.5H45l0.8-2.4l0.8,2.4h2.6L47.1,77.1z M47.7,100.9l-2.1-1.5l-2.1,1.5l0.8-2.4L42.3,97h2.6
		l0.8-2.4l0.8,2.4H49l-2.1,1.5L47.7,100.9z M93,22.1l0.8-2.4l0.8,2.4h2.6l-2.1,1.5l0.8,2.4l-2.1-1.5L91.8,26l0.8-2.4l-2.1-1.5H93z
		 M112.2,86.8l0.8-2.5l0.8,2.5h2.6l-2.1,1.5l0.8,2.4l-2.1-1.5l-2.1,1.5l0.8-2.4l-2.1-1.5H112.2z M112.2,64.9l0.8-2.4l0.8,2.4h2.6
		l-2.1,1.5l0.8,2.4l-2.1-1.5l-2.1,1.5l0.8-2.4l-2.1-1.5H112.2z M112.2,43.5l0.8-2.4l0.8,2.4h2.6l-2.1,1.5l0.8,2.4l-2.1-1.5l-2.1,1.5
		l0.8-2.4l-2.1-1.5H112.2z M112.2,22.1l0.8-2.4l0.8,2.4h2.6l-2.1,1.5l0.8,2.4l-2.1-1.5L111,26l0.8-2.4l-2.1-1.5H112.2z M37.5,66.4
		l0.8,2.4l-2.1-1.5l-2.1,1.5l0.8-2.4l-2.1-1.5h2.6l0.8-2.4l0.8,2.4h2.6L37.5,66.4z M37.5,88.3l0.8,2.4l-2.1-1.5l-2.1,1.5l0.8-2.4
		l-2.1-1.5h2.6l0.8-2.5l0.8,2.5h2.6L37.5,88.3z M38.3,111.7l-2.1-1.5l-2.1,1.5l0.8-2.4l-2.1-1.5h2.6l0.8-2.4l0.8,2.4h2.6l-2.1,1.5
		L38.3,111.7z M27.9,76.7l0.8,2.4l-2.1-1.5l-2.1,1.5l0.8-2.4l-2.1-1.5h2.6l0.8-2.4l0.8,2.4H30L27.9,76.7z M28.5,100.5L26.5,99
		l-2.1,1.5l0.8-2.4l-2.1-1.5h2.6l0.8-2.4l0.8,2.4h2.6l-2.1,1.5L28.5,100.5z M19.1,111.7l-2.1-1.5l-2.1,1.5l0.8-2.4l-2.1-1.5h2.6
		l0.8-2.4l0.8,2.4h2.6l-2.1,1.5L19.1,111.7z M122.4,14.5c-0.9-0.1-7.9-0.9-8.9-1l-17.3,0.6c-17.9,2.2-34.7,9.4-48.5,20.5l0.4,1.1
		l-0.9-0.7c-3.2,2.6-6.2,5.4-9,8.4h1.4L37.5,45l0.8,2.4l-2.1-1.5l-0.8,0.6c-1.9,2.2-3.8,4.6-5.5,7h0.3L29.6,54
		c-0.4,0.6-0.8,1.2-1.2,1.8l0.6,1.7l-1.1-0.8c-5.8,8.9-10.3,18.9-13,29.8c0,0.1-0.1,0.3-0.1,0.4h1.6l0.8-2.5l0.8,2.5h2.6l-2.1,1.5
		l0.8,2.4L17,89.3L15,90.8l0.8-2.4l-1.2-0.9c-2.4,10-3.1,20-2.3,29.8h110.1V14.5z"/>
</g>
</svg>
